<?xml version="1.0" standalone="no"?>
<!DOCTYPE svg PUBLIC "-//W3C//DTD SVG 1.1//EN" "http://www.w3.org/Graphics/SVG/1.1/DTD/svg11.dtd" >
<svg xmlns="http://www.w3.org/2000/svg">
<metadata></metadata>
<defs>
<font id="atlas_sansmedium" horiz-adv-x="20" >
<font-face units-per-em="2048" ascent="1638" descent="-410" />
<missing-glyph horiz-adv-x="860" />
<glyph horiz-adv-x="0" />
<glyph horiz-adv-x="682" />
<glyph unicode=" "  horiz-adv-x="860" />
<glyph unicode="&#x09;" horiz-adv-x="860" />
<glyph unicode="&#xa0;" horiz-adv-x="860" />
<glyph unicode="!" horiz-adv-x="395" d="M20 168q-1 30 34.5 89t61.5 73q35 18 89 10q77 -11 118.5 -78t2.5 -119q-66 -89 -162 -89q-42 0 -59.5 8t-43.5 38q-41 48 -41 68zM99.5 1032q2.5 185 17.5 195q24 15 120 13t118 -18q11 -8 15 -14.5t4 -20t-4 -30t-10 -51.5t-12 -77.5t-11 -115.5t-7 -159 q-5 -231 -20 -246q-14 -14 -23 9q-12 32 -25 17q-8 -9 -11 -34q-3 -26 -12.5 -31t-53.5 -1q-64 6 -72 14q-4 4 -10 184.5t-3.5 365.5z" />
<glyph unicode="#" horiz-adv-x="823" d="M23 830l7 59l165 14l4 55q4 54 19 73q15 18 60 16t62 -22q18 -22 25 -71q6 -35 15 -43t42 -8q35 0 42.5 9.5t12.5 59.5l7 68h123l16 -61q11 -45 21 -54.5t54 -14.5q45 -5 53.5 -13t11.5 -46t-5 -48.5t-54 -31.5q-62 -27 -71 -62q-10 -43 4 -58.5t64 -15.5q61 0 85 -27 q17 -19 17.5 -30.5t-14.5 -42.5q-14 -29 -30.5 -39t-64.5 -19l-73 -14v-151l-51 -4q-62 -5 -84 14.5t-26 82.5q-3 50 -8.5 61t-29.5 11t-30.5 -12.5t-10.5 -70.5l-7 -82l-57 -4q-35 -2 -49.5 3.5t-28.5 25.5q-23 34 -26 79l-4 47l-179 14l3 55q6 101 118 103q39 0 45 6.5 t3 45.5l-4 51l-77 8q-79 9 -90 17q-12 9 -5 67zM355 667q5 -26 52 -30q42 -4 57.5 10t7.5 48q-5 22 -16 29t-41 7q-38 0 -52 -15t-8 -49z" />
<glyph unicode="$" horiz-adv-x="841" d="M20 230l28 64q27 63 55.5 78.5t83.5 -3.5t72 1t17 100q0 66 -15.5 94t-46.5 20q-27 -7 -27 6q0 10 -62 78q-53 57 -60.5 102.5t23.5 124.5q15 39 35 59.5t74 51.5q87 50 100 63q10 10 21 95.5t17 91.5q11 11 51 0q29 -8 36.5 -21.5t11.5 -70.5q5 -60 12.5 -71.5 t42.5 -19.5q48 -11 59 0q5 5 11.5 41t13.5 74t24.5 66.5t42.5 23.5q13 -3 16 -26.5t1 -101.5l-4 -123l59 -30q63 -30 84 -38q30 -10 24 -54t-42 -80q-28 -28 -41 -32.5t-36 5.5q-41 18 -51 9t-21 -73q-12 -67 2 -102.5t59 -51.5q32 -12 59.5 -57.5t43.5 -111.5q8 -34 9 -51 t-5 -25t-14 -12.5t-20 -20t-21 -42.5q-6 -19 -24 -40.5t-38 -34.5q-73 -48 -86 -68.5t-20 -100.5l-9 -103h-96l-5 80q-3 57 -10.5 72t-41.5 31q-47 22 -61.5 5.5t-18.5 -93.5q-4 -82 -13 -84q-8 -3 -50 21q-28 16 -33 29t1 55q7 53 7.5 73t-4.5 27t-22 9q-12 2 -22.5 11 t-13.5 21q-5 20 -19 24t-30.5 -1.5t-40 -4t-43.5 17.5zM203 735q1 -17 19 -27q2 -1 5 -2q14 -4 13 7q0 16 -18 27q-3 2 -6 3q-14 5 -13 -8zM363 356q2 -58 17 -82t49 -24q29 0 42.5 25.5t21.5 94.5q5 42 2 60.5t-18 31.5q-47 43 -81.5 11t-32.5 -117zM397 768q9 -45 41 -69 q40 -30 63 -13t33 86q6 44 3.5 63.5t-16.5 35.5q-23 25 -61 25q-23 0 -34.5 -7.5t-19.5 -29.5q-18 -46 -9 -91z" />
<glyph unicode="%" horiz-adv-x="1421" d="M29 936q13 47 42 106q40 81 63 109t72 54q41 22 142.5 16.5t159.5 -32.5q56 -26 75 -71t18 -148q-1 -75 -8.5 -104.5t-37.5 -77.5q-45 -71 -55 -71q-11 0 -15 -22q-4 -19 -57 -41t-113 -29q-109 -12 -237 111q-87 88 -37 91q8 0 14.5 4.5t6.5 9.5t-6.5 9.5t-14.5 4.5 q-34 0 -12 81zM238 96q-21 21 41.5 103.5t135.5 163t73 90.5q0 4 32 40t89.5 110t104.5 154q24 40 115 151.5t100 111.5q13 0 23 23q19 47 50 87.5t48 40.5q23 0 49 28q24 27 62 27t62 -27q18 -20 17 -28.5t-22 -31.5q-29 -31 -29 -49q0 -19 -74 -108t-181 -212.5 t-155 -189.5q-47 -64 -112.5 -143.5t-87.5 -114.5q-33 -54 -130 -154q-70 -72 -90.5 -85t-57.5 -7q-50 7 -63 20zM243.5 900q-9.5 -24 8 -39.5t63.5 -24.5q47 -9 61 -6t31 26q51 66 -6 120q-33 30 -48.5 27t-62.5 -45q-37 -34 -46.5 -58zM840 250q-4 27 21 140q7 33 27.5 65 t44 54.5t47.5 40.5t40 26.5t20 9.5l59 13q27 6 110.5 -1.5t102.5 -17.5q22 -12 55 -47q23 -25 28 -52t6 -128l1 -144l-184 -183l-80 17q-122 26 -159 44.5t-85 76.5q-50 59 -54 86zM1054 281q3 -26 14.5 -32.5t60.5 -9.5q45 -3 62 2.5t31 25.5q13 19 18 34t1 23.5t-17 8.5 q-20 0 -36 20q-14 17 -33 19.5t-29 -13.5q-8 -14 -29 -20.5t-33.5 -18t-9.5 -39.5z" />
<glyph unicode="&#x26;" />
<glyph unicode="'" horiz-adv-x="239" d="M21 1148.5q-1 36.5 19 62.5q16 16 70 12q108 -9 109 -144q1 -130 -110 -192q-56 -31 -67 -16q-8 10 20 38q43 43 59 89q17 49 -26 49q-29 0 -51 32.5t-23 69z" />
<glyph unicode="(" horiz-adv-x="499" d="M20 408v200q0 146 5.5 183t37.5 98l83 165q27 57 49 78.5t87 55.5q98 51 112 51q16 0 51 -46q30 -40 27.5 -72.5t-39.5 -73.5q-47 -53 -107.5 -155t-73.5 -153q-12 -49 -10.5 -78t21.5 -115q25 -105 49 -154t78 -100q63 -60 46 -67q-5 -1 -17 3q-22 8 -20 -6 q3 -23 41 -52q52 -39 36 -53q-4 -4 -16 -4q-8 0 -14 -6t-6 -14t-12.5 -20.5t-29.5 -21.5q-20 -10 -29.5 -14.5t-16 -4.5t-8 4.5t-1.5 14.5q0 14 -52.5 44.5t-76.5 30.5q-16 0 -55 51.5t-85 134.5zM151 238q0 -10 24.5 -33.5t34.5 -23.5q9 0 -5 25q-1 1 -2 3q-18 30 -41 36 q-11 3 -11 -7z" />
<glyph unicode=")" horiz-adv-x="516" d="M20 132l44 37q45 38 43 57q-1 10 -21 2q-22 -8 -19 4q2 17 40 53q55 52 84.5 109t51.5 153q19 85 20.5 116.5t-11.5 81.5q-13 51 -71 148t-108 154q-37 41 -39.5 73.5t27.5 72.5q36 47 47 47q18 0 97 -43t95 -62q20 -23 43 -67l152 -287l-6 -180q-5 -155 -27 -223.5 t-93 -145.5q-56 -60 -56 -83q0 -9 -6 -16t-14 -7q-28 0 -79.5 -29.5t-51.5 -45.5q0 -21 -8 -21q-14 0 -46 21.5t-55 46.5zM297 188q3 0 8 2q18 7 28 30q10 26 2 25t-26 -28q-20 -29 -12 -29z" />
<glyph unicode="*" horiz-adv-x="512" d="M23.5 840q9.5 24 61.5 62q29 21 47.5 40t14.5 24q-5 8 -61 39.5t-56 41.5q0 23 30.5 24t69.5 -21q48 -26 63.5 -18t23.5 65q11 73 20 82t42 -9q26 -14 26 -59t10.5 -52t53.5 13q48 23 71 8q31 -19 21.5 -45.5t-56.5 -52.5q-59 -32 -59 -45q0 -7 21 -19t53 -31t50 -39 q38 -41 12 -57q-25 -15 -76 11q-20 10 -38 26q-46 41 -61 41q-9 0 -15.5 -33.5t-10.5 -72t-20.5 -65.5t-44.5 -17q-21 8 -21 83q0 76 -12 83q-10 6 -64.5 -28.5t-74.5 -21.5q-30 19 -20.5 43z" />
<glyph unicode="+" horiz-adv-x="651" d="M22 537q5 56 22 67q14 10 105 17l89 7l4 76q2 32 8 56t14 35.5t17.5 19.5t17 7t12.5 -1q19 -7 44 -7q24 0 46.5 -43.5t22.5 -90.5q0 -39 26 -55.5t86 -16.5q33 0 63.5 -21t30.5 -43q0 -10 -20.5 -33t-17.5 -40q2 -13 -14 -18t-72 -10l-89 -7l-2 -193h-71q-68 -1 -89 21 t-26 96l-5 76l-68 8q-69 9 -104 23q-23 10 -28.5 21.5t-1.5 48.5z" />
<glyph unicode="," horiz-adv-x="235" d="M20.5 178q1.5 34 27.5 55q25 20 68.5 17t65.5 -27q23 -26 30 -96t-10 -111q-12 -29 -73 -83t-81 -54q-25 0 7 49q5 8 18 26q53 78 51 104q-1 21 -28 25q-34 5 -55.5 33t-20 62z" />
<glyph unicode="-" horiz-adv-x="417" d="M20 508q2 31 23 43t129.5 13.5t170.5 -9.5l55 -9v-138l-173 -1q-129 -1 -153 3.5t-36 29.5q-18 37 -16 68z" />
<glyph unicode="." horiz-adv-x="233" d="M33.5 94q-29.5 43 1.5 101q12 22 42 26.5t60 -6t53.5 -33.5t23.5 -49q0 -30 -21 -47t-67 -24q-63 -11 -92.5 32z" />
<glyph unicode="/" horiz-adv-x="743" d="M28 138q13 36 84 160q41 72 65 121t28 65.5t8.5 29t15.5 25.5q13 16 68.5 132.5t79.5 149.5q39 55 65.5 109t26.5 79q0 27 41 94.5t41 77.5q0 14 29 36q22 15 71.5 13t68.5 -18q8 -7 -9.5 -69t-12.5 -76q7 -19 -15 -28q-13 -5 -52.5 -75.5t-96.5 -180.5t-82 -155 q-52 -91 -148.5 -283t-96.5 -205q0 -24 -20 -53t-36 -29q-18 0 -33.5 -14t-41.5 -14q-33 0 -47 36t-1 72z" />
<glyph unicode="0" horiz-adv-x="1056" d="M23 737q5 114 12.5 153.5t35.5 95.5q41 81 134.5 154t192.5 101q41 11 148 5t136 -21q22 -11 121 -75q62 -40 82.5 -63.5t44.5 -83.5q29 -71 57 -165t37 -110q16 -25 13.5 -75t-11.5 -92.5t-19.5 -86t-10.5 -56.5q0 -35 -39 -99t-88.5 -114.5t-76.5 -50.5q-19 0 -46 -22 t-64 -34q-28 -9 -48.5 -19.5t-40.5 -16t-72 -11.5q-39 -5 -55 -5.5t-27.5 4.5t-18 12t-32 21.5t-63.5 30.5q-79 32 -184 137l-105 105l-10 107q-10 103 -3 274zM336 653q-1 -98 46 -210.5t96 -129.5q26 -9 44 0.5t70 61.5q78 77 98 123.5t12 133.5q-19 185 -86 225 q-36 22 -80.5 23.5t-61.5 -18.5t-45 -24q-30 -5 -61.5 -67.5t-31.5 -117.5z" />
<glyph unicode="1" horiz-adv-x="634" d="M21 840.5q1 11.5 20 51.5q28 60 28 74q0 10 18.5 49t44 94.5t38.5 95.5q6 20 34 24t151 3q186 -1 207 -7q16 -9 16 -26q0 -26 11 -33q7 -4 6.5 -223.5t-7.5 -266.5q-2 -14 7 -182.5t18 -280.5q4 -49 0.5 -61t-22.5 -12q-15 0 -21 -7.5t-6 -26.5q0 -35 -31 -55.5 t-70.5 -23.5t-77 2.5t-51.5 18.5q-13 12 -19.5 98t-20.5 431q-7 186 -21 219q-12 27 -44 13q-10 -4 -27 -14q-22 -13 -34.5 -14.5t-17.5 3t-19 10.5t-35 6q-34 0 -59 17q-17 12 -16 23.5z" />
<glyph unicode="2" horiz-adv-x="1019" d="M24 33l8 39q8 42 -6 90q-15 51 3 76q10 13 25 4q11 -8 32.5 7t21.5 31q0 10 -9 4.5t-20 -12t-20 6.5q-11 18 70 89t188 137q36 22 124 100.5t125 120.5q30 34 42.5 61t17.5 68q15 124 -84 124q-31 0 -121.5 -39.5t-124.5 -67.5q-16 -15 -35 -9.5t-104 51.5q-58 31 -93 88 q-29 47 -6 57q5 2 11 2t57 33.5t122 75.5t119 58t198 5.5t202 -32.5q68 -29 138 -118.5t69 -147.5q0 -30 -28 -135q-22 -84 -61 -134t-145 -131q-87 -66 -154.5 -136t-60.5 -87q13 -34 348 -22l127 4l-8 -67q-4 -35 -7 -96q-4 -81 -15 -92q-11 -13 -38 12q-17 16 -25 17.5 t-15 -9.5t-98 -15.5t-342 -6.5z" />
<glyph unicode="3" horiz-adv-x="983" d="M23.5 227.5q-7.5 13.5 0.5 39.5q7 41 43 81t65 40q19 0 31 6.5t16.5 12t19 4.5t41.5 -14q50 -23 57 -23q10 0 96 -41q63 -30 81.5 -33t54.5 12q147 62 85 184q-23 46 -77.5 66.5t-131.5 13.5q-63 -6 -79 -1t-42 39q-32 42 -33 65t29 47q38 30 118.5 124.5t75.5 102.5 q-4 6 -82.5 8.5t-165 6.5t-104.5 13q-9 4 -28 13t-23 11q-17 8 -22 61t6 106l10 47l123 7q206 8 313.5 2t196 -17.5t98.5 -11.5q52 0 74.5 -26t31.5 -94q8 -65 -17 -108t-130 -141q-39 -36 -66.5 -67.5t-27.5 -38.5q0 -12 32 -29t90.5 -52t105.5 -80q50 -49 62 -70t12 -61 q0 -156 -86 -246q-23 -25 -46.5 -42.5t-33.5 -17.5q-23 0 -41 -22q-38 -47 -121 -69t-129 2q-42 21 -110 21q-82 0 -174 33.5t-118 72.5q-15 23 -34 35t-29 13.5t-17.5 15zM613 140q-4 -13 6 -14q15 0 15 14t-7 14t-14 -14z" />
<glyph unicode="4" horiz-adv-x="1177" d="M22 487q4 18 34 60q42 58 42 77q0 7 7 17t26 31.5t43.5 47.5t68.5 76t92 107q142 170 215 250l77 84l137 -5q165 -6 188 -12q30 -7 37 -30q2 -7 9 -53q13 -85 13 -344l1 -261l51 -4q52 -5 73 -35q16 -24 20 -74.5t-10 -63.5q-11 -11 -11 -41q0 -19 -12 -25.5t-56 -10.5 l-69 -7l-14 -96q-15 -101 -23 -112q-6 -10 -69.5 -20t-126 -2.5t-62.5 43.5q0 10 -7 20.5t-16 13.5q-18 7 -18 35t4.5 53.5t-12.5 43.5q-19 15 -260 17q-180 1 -218 6t-78 34q-32 24 -45 45t-23 65q-12 52 -8 70zM459 562q4 -11 88 -11.5t103 10.5q11 7 11 115 q0 109 -13 116q-5 3 -20 -9.5t-31 -32.5l-91 -111q-22 -25 -35.5 -48t-11.5 -29z" />
<glyph unicode="5" horiz-adv-x="917" d="M21.5 279.5q4.5 27.5 42.5 79.5q29 41 44.5 57.5t33.5 19.5t32.5 -8.5t43.5 -42.5q13 -14 18 -19.5t16 -14.5t13.5 -12t14.5 -8.5t15.5 -6.5t19.5 -4t23 -3t29 -1t36 -0.5t45 0.5q75 0 104.5 22t29.5 80q0 55 -33.5 86t-113.5 48q-51 11 -95.5 9.5t-64.5 -8.5t-42 -9 t-27 8q-14 14 -54 14q-29 0 -34 9.5t-2 62.5q3 59 -12 101.5t-9 117.5q8 101 10 214q2 63 6.5 78.5t27.5 19.5q25 4 40.5 26.5t36.5 31.5q24 10 286.5 3.5t317.5 -17.5l43 -9l-4 -103q-5 -114 -27 -120q-7 -2 -18 5q-17 11 -238.5 7.5t-232.5 -14.5q-12 -12 -14 -99l-2 -87 l49 3q83 5 135.5 0.5t134.5 -24.5q102 -25 147.5 -45.5t55.5 -46.5q19 -48 34 -146.5t15 -170.5v-106l-68 -58q-68 -59 -81 -59q-12 0 -97 -56q-73 -49 -133 -56t-185 19q-109 22 -193.5 67t-103.5 89q-20 49 -15.5 76.5zM747 1089q0 -5 6 -9.5t14 -4.5t14.5 4.5t6.5 9.5 q0 13 -21 13q-20 0 -20 -13z" />
<glyph unicode="6" horiz-adv-x="960" d="M27 708.5q15 131.5 50 208.5q31 68 104.5 145t151.5 122q44 26 75.5 34t54.5 6t86 -7t136 -4q34 1 58.5 -10.5t68.5 -47.5q71 -60 71 -82q0 -29 -39 -82.5t-60 -53.5q-14 0 -47.5 11t-66.5 21.5t-89 8.5t-117 -24l-69 -25l-9 -82q-9 -82 -3 -88q5 -5 108 19 q123 29 215 -0.5t166 -121.5q46 -58 61.5 -134t2.5 -145.5t-38.5 -130t-59 -97t-61.5 -36.5q-11 0 -48 -30t-71 -33q-69 -6 -124 -11q-100 -9 -207.5 34.5t-156.5 112.5q-78 110 -104.5 164t-37.5 127q-16 100 -1 231.5zM331 391.5q10 -42.5 34 -68.5q18 -20 39.5 -24.5 t88.5 -2.5q63 2 88.5 9t47.5 27q41 39 33.5 92.5t-59.5 80.5q-57 29 -156 13.5t-115 -56.5q-11 -28 -1 -70.5zM370 144q-14 -15 9 -27q22 -12 34 -1q3 3 3 9q0 11 -19 19t-27 0z" />
<glyph unicode="7" horiz-adv-x="1001" d="M24 1105.5q13 61.5 66 92.5q34 19 100 23t357 2q331 -2 386 -11q48 -8 48 -30q0 -10 -11 -38q-11 -26 -12 -43t2 -28t2.5 -27.5t-14 -52.5t-43.5 -93l-83 -158q-13 -24 -32.5 -44.5t-42.5 -74.5q-29 -69 -99.5 -175.5t-97.5 -180.5q-26 -71 -96 -146q-46 -49 -70.5 -63 t-74.5 -22q-122 -18 -147 8q-11 12 7 30q17 17 17 68q0 26 6.5 43.5t14 24t14 14t6.5 14.5q0 9 34.5 89.5t34.5 85.5q0 7 41 50.5t41 60.5q0 8 2.5 14t7.5 12.5t17.5 23.5t28.5 41.5t44 73t61 110.5t65 96q36 38 27 83q-7 34 -33 36q-12 1 -26 -7q-22 -12 -205.5 -13 t-224.5 -8t-57 -3.5t-35 22.5q-39 39 -26 100.5z" />
<glyph unicode="8" horiz-adv-x="987" d="M23 421q6 93 13.5 115t47.5 58q54 48 80 64q18 12 11.5 23.5t-57.5 59.5q-62 58 -71.5 102t27.5 112q27 49 27 68q0 8 35.5 48t91 85t98.5 55q58 14 224 9q135 -4 182 -21t115 -87q35 -37 50 -37q12 0 39 -45q16 -28 19.5 -51t-1.5 -69q-16 -138 -62 -138q-21 0 -21 -34 q0 -14 -4.5 -24t-10.5 -10q-9 0 -8.5 -17t3.5 -34t-7 -25q-16 -10 -10.5 -23t42.5 -52q60 -64 75.5 -99t15.5 -105t-16.5 -116.5t-36 -63t-46.5 -34.5t-37 -29q-62 -74 -288 -77q-99 -1 -169 9.5t-97 24t-51.5 25t-44.5 11.5q-28 0 -82.5 53.5t-67.5 94.5q-16 46 -8 174z M334 399q-31 -57 89 -115q67 -31 91 -31.5t52 29.5q17 19 23.5 41.5t6.5 67.5q0 51 -6 69t-29 36q-30 23 -51.5 25t-89.5 -11q-49 -10 -67 -20t-15 -21.5t4.5 -28.5t-8.5 -41zM361 909q-4 -42 30 -51q11 -3 25 -15.5t22 -28.5q28 -53 88 -49t90 62q42 82 -20 125 q-37 26 -98.5 32t-96.5 -13q-36 -20 -40 -62z" />
<glyph unicode="9" horiz-adv-x="964" d="M20.5 828.5q-0.5 57.5 15 118.5t38.5 110.5t55 81.5t64 32q18 0 42 27.5t59 28.5q36 0 68 12q26 11 88.5 11t76.5 -11q13 -10 91 -26q67 -13 115 -55.5t123 -155.5q62 -93 78.5 -178t1.5 -236q-14 -138 -49 -219t-110 -151q-93 -86 -225 -136.5t-172 -14.5 q-19 17 -104 28.5t-103 27.5q-21 20 -54 36q-30 15 -34.5 48.5t19.5 60.5q14 16 25 35t15 27.5t16 13.5t32.5 0.5t59.5 -18.5q118 -42 241 4q46 17 55 30t15 69q7 76 -1 86q-3 5 -31.5 2t-61.5 -12q-77 -19 -108.5 -19t-98.5 19t-133.5 84t-92.5 134q-15 48 -15.5 105.5z M301.5 885.5q-3.5 -39.5 19.5 -70t69.5 -46.5t99.5 -6q41 8 57 11t36.5 10t25 10t11 13.5t7 18.5t1.5 28q2 37 -4 56t-28 42q-24 26 -44.5 32t-80.5 6q-55 0 -79.5 -6.5t-49.5 -27.5q-37 -31 -40.5 -70.5zM534 1159q0 -11 19.5 -19.5t26.5 -0.5q14 15 -9 27q-22 13 -34 2 q-3 -3 -3 -9z" />
<glyph unicode=":" horiz-adv-x="231" d="M24.5 126.5q-8.5 35.5 8.5 67.5q17 31 68.5 29t82.5 -35q32 -35 23 -66.5t-58 -54.5q-36 -18 -48.5 -17.5t-38.5 19.5q-29 22 -37.5 57.5zM29.5 508q-21.5 52 4.5 101q16 29 65.5 27.5t81.5 -31.5q24 -23 28.5 -50t-7.5 -48.5t-40 -36t-65 -14.5q-46 0 -67.5 52z" />
<glyph unicode=";" horiz-adv-x="223" d="M20.5 185.5q0.5 34.5 26.5 49.5q28 17 64.5 13.5t55.5 -25.5q24 -26 31.5 -96t-9.5 -111q-13 -32 -66 -84.5t-72 -52.5q-38 0 27 83q38 49 44 82t-23 39q-34 7 -56.5 37.5t-22 65zM34 485.5q-29 49.5 3 108.5q12 23 40 27t55.5 -7.5t48.5 -36t21 -52.5q0 -33 -18.5 -50.5 t-62.5 -26.5q-58 -12 -87 37.5z" />
<glyph unicode="&#x3c;" horiz-adv-x="798" d="M22 628q-7 55 24 94.5t92 66t129 48t154 55t147 72.5q105 67 146 68q28 1 48 -37t16.5 -78.5t-31.5 -45.5q-29 -6 -62 -35q-41 -36 -161.5 -91.5t-196.5 -73.5q-65 -16 -68 -29q-3 -15 90 -59t155 -58q30 -6 45.5 -11t23.5 -10t14.5 -11t26.5 -17.5t51 -25.5 q62 -28 81.5 -53.5t11.5 -67.5q-11 -55 -51 -57.5t-150 45.5q-64 28 -163 76t-165.5 78t-106.5 40q-58 13 -75 33.5t-25 83.5z" />
<glyph unicode="=" horiz-adv-x="419" d="M20.5 814.5q-0.5 38.5 15.5 49.5q17 10 85.5 20t101.5 4q8 -1 30.5 -4.5t41.5 -7t40 -7.5t34.5 -9.5t15.5 -10.5q22 -65 5 -114q-8 -23 -32 -27t-142 -2q-135 2 -155 9q-14 6 -24 27q-16 34 -16.5 72.5zM21.5 501.5q2.5 37.5 23.5 50.5q20 12 108.5 14t160.5 -8 q58 -8 75 -31.5t5 -79.5l-11 -53l-165 -1q-123 -1 -146 3.5t-35 29.5q-18 38 -15.5 75.5z" />
<glyph unicode="&#x3e;" horiz-adv-x="796" d="M20.5 925.5q0.5 44.5 24.5 71.5q45 50 177 -27q79 -46 174 -83.5t158.5 -55.5t111.5 -38.5t56 -41.5q6 -16 14 -24.5t15 -11t13 -8t9.5 -21.5t3.5 -44q0 -46 -5 -67.5t-27 -36.5t-48 -22t-87 -30.5t-126 -56.5q-151 -77 -268.5 -122.5t-136.5 -34.5q-28 17 -36 55t10 66 q18 27 114.5 76.5t151.5 59.5q34 7 123 48t107 58q5 5 3 10.5t-10 7.5q-108 28 -256 89.5t-183 92.5q-31 28 -59 38q-24 8 -23.5 52.5z" />
<glyph unicode="?" horiz-adv-x="774" d="M21 1108q3 14 11 23.5t26 18t38 16t59 22.5t77 32q42 19 149.5 19.5t143.5 -18.5q44 -23 125.5 -112.5t94.5 -129.5q10 -31 8.5 -55.5t-18.5 -76.5q-35 -111 -75.5 -166.5t-118.5 -100.5q-45 -26 -70 -47.5t-28.5 -31t-12 -17t-27.5 -11t-68 -8.5q-101 -10 -114 3t-3 125 q8 84 15 100.5t41 30.5q30 12 50.5 12t31 0.5t24.5 14.5q22 22 33 22q13 0 56.5 55t43.5 71q0 15 -22 43.5t-50 49.5q-22 17 -84 22t-71 -9q-7 -13 -29 -13q-16 0 -73.5 -41t-64.5 -41q-14 0 -58 89t-40 109zM219 100q-89 106 54 231q42 37 70 40.5t63 -24.5 q63 -49 63 -122.5t-63 -125.5q-52 -44 -101 -43.5t-86 44.5z" />
<glyph unicode="@" horiz-adv-x="1220" d="M21 560q4 72 46 193q48 137 48 154q0 19 56.5 93.5t97.5 109.5q35 30 95.5 60t114.5 44q37 10 193 4q107 -5 146 -13.5t117 -45.5q66 -31 100.5 -57t67.5 -68q36 -45 52.5 -85t21.5 -66.5t14 -37.5q5 -7 8.5 -60.5t-7.5 -137.5t-42 -145q-29 -57 -54 -78t-115 -64 q-60 -29 -137.5 -22.5t-122.5 44.5q-37 32 -53.5 32t-53.5 -32q-27 -23 -43 -26t-55 7q-58 16 -126 79q-48 44 -58.5 63.5t-10.5 62.5q0 107 56 193t134 99q43 7 182.5 1.5t154.5 -15.5q11 -6 2 -175q-6 -110 -3.5 -142t17.5 -45q24 -20 61.5 -4t66.5 59q22 33 26.5 61.5 t0.5 120.5l-5 134l-55 56q-102 106 -245 144q-49 13 -80 13t-100 -13q-107 -20 -128 -36q-119 -89 -181 -223t-42 -259q16 -101 63 -156t167 -113q69 -33 115 -43t179 -20q78 -6 110.5 -9t57.5 -8.5t30 -11t11 -18.5q16 -37 -3 -59.5t-85 -45.5q-74 -26 -170 -19 q-111 8 -183.5 22.5t-97 28.5t-48.5 28.5t-47 19.5q-16 4 -51.5 29t-70.5 58q-53 50 -73 80.5t-39 89.5q-31 98 -27 170zM506 639.5q-20 -47.5 30 -86.5q28 -22 71.5 -27t68.5 11q17 12 13 93q-4 66 -17.5 77t-72.5 -3q-73 -17 -93 -64.5z" />
<glyph unicode="A" horiz-adv-x="1374" d="M20 458q0 68 22 88.5t102 27.5q94 8 116 17q36 14 64 66q17 33 81 191l88 217q25 62 51.5 105.5t46 64t43.5 32t35.5 12.5t30.5 1h5q62 0 88 -10q21 -9 68 -78t65 -117q13 -36 28 -71t22 -51.5t7 -21.5q0 -8 103 -224.5t103 -228.5q0 -6 82.5 -147.5t82.5 -157.5 q0 -14 -33.5 -32t-39.5 -34q-5 -13 -25 -17q-12 -2 -37 -2q-14 0 -32 1q-28 1 -43 2.5t-30.5 8.5t-23.5 15t-19 28.5t-18.5 41.5t-21.5 62l-31 92l-246 -4q-246 -3 -263 -19q-11 -10 -20.5 -36.5t-19.5 -56t-25 -58.5t-43.5 -49.5t-69.5 -24.5q-25 -2 -52.5 -7t-41.5 -7 q-11 -2 -26 -2q-4 1 -8 1q-20 0 -42 6q-18 5 -26.5 10t-14 12t-3 24t7 36.5t16.5 58.5q24 78 24 97q0 18 -40 15h-9q-36 -1 -56 27q-22 32 -22 96zM612 583q0 -17 137 -17t137 14q0 21 -67 175.5t-78 154.5q-4 0 -7.5 -7.5t-14 -36t-24.5 -59.5q-30 -67 -56.5 -138.5 t-26.5 -85.5z" />
<glyph unicode="B" horiz-adv-x="1275" d="M23 612q-3 27 -3 48q0 38 8 56q12 28 55 29q34 0 60 14q18 10 22.5 39t4.5 139q0 95 -4.5 132t-16.5 47q-20 16 -20.5 34.5t18.5 29.5q18 10 33 53l13 41l226 14q112 7 210 7q129 0 234 -12q186 -21 265 -75q71 -49 92.5 -87t23.5 -118v-9q0 -78 -32 -174 q-34 -102 -78 -148l-36 -38l42 -33q41 -32 81 -89q28 -38 33 -64q2 -13 2.5 -39.5t-2.5 -66.5q-6 -111 -34.5 -161t-98.5 -73q-71 -23 -239 -34q-84 -6 -155 -6t-129 6q-82 8 -138 8q-33 0 -56 -3q-18 -2 -37 -2q-31 0 -69 6q-58 10 -76 27q-9 9 -25 175t-21 173 q-7 12 -53 12q-49 0 -70.5 31t-29.5 111zM486 896q0 -83 17 -106q10 -14 32 -14q15 0 36 7q38 12 175.5 13.5t150.5 9.5q15 9 17 27.5t-7.5 40t-26 43t-40.5 38t-49 23.5q-53 14 -169 22q-54 4 -84 4q-36 0 -41 -5q-11 -11 -11 -103zM489 399q3 -23 31.5 -29.5t178.5 -17.5 q113 -9 172 -9q48 0 59 6q23 12 23 40q-1 3 -1 6q-2 33 -31 60q-29 29 -88 37q-20 3 -37 2q-35 0 -62 -11q-31 -13 -127 -15q-75 -1 -99 -15q-20 -12 -20 -41q0 -6 1 -13z" />
<glyph unicode="C" horiz-adv-x="1019" d="M21 628q1 82 9.5 121.5t40.5 113.5q62 146 143.5 239.5t190.5 143.5q41 19 81 24q34 4 111 4h32q158 -1 197 -20q30 -15 78.5 -83.5t59.5 -109.5q2 -6 2 -14q0 -30 -27 -79q-29 -54 -50 -54q-3 0 -5 1q-8 3 -18 -2t-15 -15q-8 -16 -20 -18.5t-45 4.5q-182 38 -216 42 q-6 1 -12 1q-29 0 -68 -13q-78 -25 -129 -96q-48 -67 -48 -140v-9q0 -6 0.5 -23.5t1.5 -23.5t3.5 -19.5t9 -26t16.5 -26.5q18 -26 19.5 -44t5 -32t27.5 -37q66 -63 169 -74q21 -2 43 -2q86 0 186 34q75 25 100 25.5t25 -23.5q0 -15 44 -51q31 -26 35 -38q1 -2 0 -5 q0 -13 -11 -43q-20 -52 -101 -116l-84 -66h-185q-123 0 -164.5 5.5t-84.5 26.5q-69 34 -152 117.5t-136 173.5q-46 77 -53 105q-6 25 -6 100v22z" />
<glyph unicode="D" horiz-adv-x="1196" d="M24 1244q12 18 54 25q50 7 60 17q9 9 108 9q22 -1 50 -1q146 -2 206 -14q133 -27 220.5 -52t113.5 -39.5t42.5 -23t30.5 -8.5q13 0 97.5 -77t84.5 -89q0 -14 31 -63q54 -87 54 -245v-17q-3 -170 -63 -259q-36 -55 -36 -70t-82 -82q-60 -48 -126.5 -77.5t-225.5 -77.5 q-23 -6 -109 -14q-68 -6 -142 -6h-40q-98 2 -126 22q-35 24 -84 24t-66 17q-14 14 -15 239t-5.5 473t-29.5 306q-4 8 -4 13q0 4 2 6q4 6 21 5q18 0 25 6t0 13.5t-25 12.5q-24 7 -24 18q0 4 3 9zM415 660q-1 -85 -1 -146q0 -141 5 -146q1 -1 6 -1q12 0 45 9q46 13 60 1 q11 -8 36 -8q20 0 49 5q66 12 109 39q50 31 91.5 95.5t41.5 111.5q0 50 12 69q7 12 7 27q0 38 -48 96q-66 80 -169 130q-104 50 -135 50q-28 -1 -59.5 -12.5t-38.5 -24.5q-8 -11 -11 -295z" />
<glyph unicode="E" horiz-adv-x="1120" d="M21 652v27q0 95 13 103q18 10 78 17l62 8v195q0 195 14 207q14 11 80 28q48 13 66 13q6 0 9 -2t7.5 -2t14.5 1.5t24 3.5t41.5 5.5t62 6.5t90 6.5t120.5 6.5q214 9 217 12q2 2 13 2q16 0 52 -6q59 -10 78 -19q18 -9 27.5 -31.5t8 -48t-8.5 -49.5t-21.5 -38.5t-31.5 -12.5 q-12 2 -22 -0.5t-26 -8t-77 -13.5t-157 -14q-202 -13 -217 -22q-10 -7 -14 -61q-1 -22 -1 -43q0 -31 3 -60q5 -50 15 -46q3 1 17 1q26 0 94 -5q45 -4 78 -4q40 0 61 6q16 5 29 5q20 0 30 -14q16 -22 23 -106q4 -32 4 -53q-1 -6 -1 -11q-2 -22 -6.5 -29t-19.5 -12 q-31 -11 -163 -11h-46t-37 -1.5t-29.5 -3t-22 -5.5t-17 -7.5t-11 -11.5t-7 -15t-3 -19.5t-1.5 -24.5t1 -31l4 -84l82 -4q55 -3 80.5 -11.5t45.5 -11.5q8 -1 36 -1q38 0 112 2q78 3 117 3q23 0 33 -1q26 -3 48 -28q20 -21 24 -41q3 -14 4 -40q0 -12 -1 -26q-3 -50 -11 -67 t-39 -38q-23 -16 -37 -21.5t-51 -6.5h-31q-24 1 -50 1q-33 1 -103 1q-23 -1 -51 -1q-110 0 -243 -4q-100 -3 -165 -3q-109 0 -120 9q-18 17 -21 230l-3 215l-151 -5z" />
<glyph unicode="F" horiz-adv-x="1064" d="M24 624q12 20 19 93q4 53 11.5 65t36.5 16q43 6 52 15q8 8 11.5 97t10.5 203t23 167q7 14 160 14q72 0 178 -3q328 -10 355 -24q20 -9 46 -9t48.5 4.5t41 2t23.5 -16.5q7 -19 -9 -42.5t-2 -37.5q16 -17 16 -68t-17 -62q-18 -12 -229 -14q-266 -3 -315.5 -9t-57.5 -36 q-12 -39 -12 -93v-12q2 -62 16 -67q11 -4 171.5 -12t173.5 -21q14 -13 14 -53q-1 -17 -3 -39q-8 -73 -33 -98q-20 -20 -48 -26t-119 -7q-139 -4 -155 -16q-17 -13 -17 -180t-20 -222q-14 -41 -26 -48q-9 -5 -43 -5h-21q-58 2 -85.5 18.5t-20.5 44.5q7 25 -17 38 q-19 11 -24 93.5t-5 168t-7 97.5q-7 13 -46 13q-34 -1 -61 25q-18 17 -18 32q0 8 4 14z" />
<glyph unicode="G" horiz-adv-x="1114" d="M21 698q0 60 29 150q28 84 28 110q0 15 52.5 77t140 132.5t162.5 91.5q68 19 160 19q47 0 101 -5q159 -15 220 -59q53 -38 53 -86v-4q-2 -51 -61 -173q-16 -34 -35 -45.5t-45 -6t-53.5 17t-74.5 25.5t-94 18q-33 2 -55 2t-33 -2q-22 -5 -64 -36q-24 -18 -41 -38t-17 -30 q0 -14 -5 -23t-11 -16t-11 -34.5t-5 -74.5q0 -74 22 -133t75 -130q18 -24 29.5 -31.5t32.5 -10t81 -2.5q78 0 137 15t73 38q4 6 4 24q0 20 -5 54l-9 65l-86 -7q-24 -2 -42 -2q-41 0 -54 10q-18 13 -28 82q-3 19 -3 35q0 47 26 58q30 12 183 12h46q190 -3 215 -10 q16 -5 22 -22q1 -1 2 -4q8 -21 11 -167q1 -37 1 -75q0 -110 -7 -223q-10 -153 -35 -177q-21 -19 -130 -24q-39 -2 -62.5 -2t-31.5 2q-16 4 -16 26q0 34 -14 37.5t-50 -22.5q-30 -21 -57 -26q-19 -4 -67 -4q-19 0 -43 1q-49 1 -73 2.5t-44 8t-28.5 12.5t-35.5 23t-55 33 q-106 59 -165 136t-127 243q-33 83 -33 145z" />
<glyph unicode="H" horiz-adv-x="1245" d="M21 660q1 50 3 72t14 37.5t28.5 19t54.5 5.5q79 4 91 16q5 5 5 29q0 29 -7 85q-12 94 -12 121q0 28 8 89q5 42 14 56.5t38 28.5q29 15 52 15h2q23 0 79 -12l88 -18l14 -397l406 -8v169q0 81 3.5 131t12.5 87.5t27 56.5t43 28.5t66 12.5q31 2 56 2q57 0 85 -12 q32 -15 32 -56q0 -8 -1 -18q-6 -36 -15.5 -538t-21.5 -524q-13 -25 -61 -25q-46 0 -55 -14q-8 -13 -41 -13t-41 13q-17 27 -32.5 115.5t-19.5 182.5q-7 150 -24 163q-6 4 -16 -2q-22 -8 -78 -8q-17 0 -37 1q-52 2 -108 2q-37 0 -77 -1q-98 -2 -102 -16q-7 -19 -8.5 -134.5 t-13.5 -201.5q-9 -69 -32 -69q-5 0 -11 4q-4 4 -13 1t-16.5 -8.5t-31 -10t-56.5 -2.5q-40 2 -55 10t-15 18.5t-5 36t-22 51.5q-12 18 -12 68q0 38 7 95q7 58 7 85q0 17 -3 23q-6 11 -21 -1q-11 -9 -38 -9q-13 0 -29 2q-50 6 -78 51q-27 42 -27 106v9z" />
<glyph unicode="I" horiz-adv-x="374" d="M20 1187q2 48 14 89q4 13 40 13q30 0 83 -9q116 -20 159 -53l31 -24l6 -486q2 -166 1.5 -270.5t-1.5 -146.5q-3 -86 -20 -128q-15 -34 -25 -46t-23 -8q-10 3 -21 -2.5t-16 -15.5q-11 -20 -36 -20q-9 0 -21 3q-42 10 -80 49l-43 44l-20 631q-3 81 -10.5 163.5t-13.5 125.5 q-4 34 -4 71v20z" />
<glyph unicode="J" horiz-adv-x="905" d="M22 275q15 142 106 151q35 3 61 -11t71 -14q57 0 73 -19q22 -27 77 -27q9 0 19 1q71 5 111 41q14 13 18 496l3 374l316 -7l2 -158q2 -184 5 -288q1 -32 1 -69q0 -92 -5 -214q-8 -171 -17 -200q-3 -10 -12.5 -18t-19.5 -8q-24 0 -26 -30q-1 -22 -42.5 -64.5t-61.5 -42.5 q-10 0 -41 -35q-23 -26 -68 -37.5t-103.5 -17t-87.5 -14.5q-7 -2 -12.5 -2t-8.5 2q-7 5 -22.5 13t-48.5 8q-51 0 -68 17q-13 13 -38.5 18.5t-97.5 10.5q-50 4 -70 39q-15 25 -15 71q0 16 2 34z" />
<glyph unicode="K" horiz-adv-x="1056" d="M21 177v512q0 513 9 518q10 5 10 40q0 33 31 37q12 2 26 2q29 0 69 -8q58 -11 86 -30q50 -32 64 -84q10 -40 10 -137q0 -29 -1 -62q-1 -34 -1 -63v-27q0 -39 2 -62.5t4 -22.5q8 3 96.5 117.5t126.5 171.5q98 147 171 147q44 0 51 12q9 16 81 20q15 1 29 0q51 0 82 -10 q39 -12 54 -20q13 -7 13 -21q0 -17 -15 -35q-13 -16 -52 -57q-49 -52 -81 -88l-169 -184q-86 -91 -86 -99q0 -5 25 -35t57.5 -70.5t45.5 -65.5q15 -30 89 -112.5t92 -120.5q17 -36 37 -57.5t33 -46.5q14 -27 14 -69q0 -13 -1 -25q-5 -58 -27 -66q-3 -1 -7 -1q-27 0 -117 44 q-104 51 -103 68q0 16 -34.5 41.5t-34.5 34.5q0 7 -17.5 28.5t-42 51.5t-35.5 53q-28 55 -73 112.5t-60 57.5t-72.5 -53.5t-73.5 -59.5q-23 -9 -39 -85q-8 -38 -8 -63.5t8 -39.5q13 -24 15 -80v-12q0 -45 -11 -52q-8 -6 -93 -15q-33 -3 -53 -3q-15 -1 -23 1q-20 4 -53 33z " />
<glyph unicode="L" horiz-adv-x="923" d="M20 1232q0 5 9 16q11 14 79 14q16 0 36 -1q100 -4 140 -23q34 -17 49 -54q15 -36 21 -120q5 -72 5 -215v-49v-47q0 -271 11 -324q8 -43 34 -51q4 -1 43 -6q121 -16 249 -20q34 -1 60 -1q70 0 75 8q11 17 21 17q14 0 25 -34q15 -43 21 -129q3 -45 3 -70q0 -20 -2 -27 q-9 -30 -56 -38q-30 -4 -178 -4h-64h-60q-118 0 -226 -3q-135 -4 -161 -6q-7 -1 -16 -1q-26 0 -69 5l-48 11v191q1 123 9 371q4 121 4 198q0 83 -5 118q-3 57 -3 99q0 79 11 102q9 19 8.5 32t-6.5 18l-11 11q-8 8 -8 12z" />
<glyph unicode="M" horiz-adv-x="1288" d="M21 1070.5q0 74.5 13 89.5q11 13 12 23.5t-2.5 17t3 18.5t26.5 29q27 22 43 28q9 4 16 4q5 0 9 -2q9 -5 15.5 -12.5t19.5 -13.5t33 -2q21 4 40 4q33 0 59 -12q42 -20 90 -82t104.5 -158.5t67.5 -108.5t24 -33.5t23.5 -37t19.5 -18.5h1q11 0 68 87q59 90 61 112 q1 18 54 81t84 84q32 21 44 43t11 34t12.5 21t51.5 12q8 1 16 1q43 1 97 -17q64 -20 89 -48q17 -18 23 -143.5t18 -685.5q1 -53 2 -75v-16q0 -17 -1 -39q-2 -33 -2.5 -42.5t-8 -29.5t-12 -24t-20 -17t-26 -18t-36.5 -18q-35 -18 -47 -18l-1 -1q-12 0 -36 17q-22 14 -40 14 t-26.5 -7.5t-20 -10t-20.5 7.5q-12 12 -19.5 292.5t-17.5 290.5q-8 8 -28 -10t-42 -51.5t-37 -68.5q-13 -31 -42.5 -64t-42.5 -64q-12 -28 -26.5 -36.5t-28.5 -2.5t-32 5.5t-36 -13.5q-14 -11 -23 -8t-26 27q-11 16 -24.5 27t-21.5 11q-10 0 -33 39.5t-51 94.5t-55.5 108.5 t-50 86.5t-31.5 24q-7 -9 -7 -309v-301l-39 -47q-28 -33 -46 -39q-16 -6 -64 -6h-15q-85 2 -97 20q-10 16 -10 194t10 261q4 35 4 86q0 30 -2 65q-4 95 -10.5 185.5t-6.5 165z" />
<glyph unicode="N" horiz-adv-x="1083" d="M23 328q-2 51 -2 183q0 165 3 457q3 258 19 274q8 8 26 8q29 0 86 -20q92 -32 181 -73q13 -6 24 -32t40.5 -77t81.5 -106q49 -51 115.5 -130.5t107 -128t46.5 -48.5q11 0 11 75v14q-1 88 -13 130q-15 52 -18 195q-1 41 -1 70q0 43 2 60q4 28 25 48q29 29 71 31 q32 2 51 12.5t71 10.5q26 0 39.5 -4.5t24.5 -15t14.5 -40t5 -66t1.5 -106.5v-59q0 -106 6 -117q19 -31 21 -359q0 -38 1 -72q0 -259 -17 -284q-11 -18 -46 -18q-14 0 -31.5 -8.5t-27.5 -21.5l-24 -30l-57 45q-57 45 -57 54q0 6 -26 34t-74.5 82t-86.5 106q-31 41 -90 111 t-97 116.5t-38 55.5q0 10 -13.5 25t-28.5 23t-19 1q-9 -15 -16 -231q-6 -166 -21 -240t-52 -114q-41 -46 -95 -46h-8q-59 4 -85 57q-26 55 -30 169z" />
<glyph unicode="O" horiz-adv-x="1286" d="M21 656v29q0 68 4 100q5 38 19 60q24 36 24 52q0 10 27.5 51t27.5 58q0 22 55.5 86t92.5 85q68 38 114 52.5t126 22.5q120 13 169 13q6 -1 10 -1q46 -2 100 -23l134 -52q69 -25 161 -117t116 -158q41 -114 55 -202q9 -55 10 -95q0 -23 -4 -41q-8 -48 -22.5 -77.5 t-29.5 -48.5t-15 -31q-1 -22 -58 -90.5t-112 -112.5q-115 -92 -213 -116q-44 -11 -99 -10q-68 0 -153 16q-133 25 -162 37l-138 56q-104 43 -189 209q-36 69 -42.5 103t-7.5 145zM386 641q9 -11 8 -20t-4 -25t8 -57q14 -49 53 -80t115 -53q47 -14 89 -14q13 0 27 2 q54 6 130 41q48 22 63 37.5t27 55.5q18 61 18 113q0 35 -8 67q-20 80 -95 157q-47 49 -70.5 63t-62.5 17q-7 1 -14 1q-44 0 -97 -22q-62 -24 -120 -70q-35 -28 -61 -109q-14 -45 -15 -73q0 -21 9 -31z" />
<glyph unicode="P" horiz-adv-x="1220" d="M26 590q10 28 49 48q32 16 65 21.5t48.5 6t29 12t18 41.5t4.5 93q0 97 -10.5 131.5t-11.5 94.5q-2 88 -12 132q-8 33 -4.5 38.5t25.5 -0.5q12 -5 26 -2.5t20.5 7.5t43.5 12t95 11q116 8 132 27q16 18 58 18q12 1 26 -1q64 -6 137 -26t131 -41.5t65 -28.5q13 -13 43 -13 q28 0 66.5 -30.5t75 -91.5t48.5 -151q4 -31 4 -65q0 -66 -15 -144q-37 -159 -123 -225q-83 -63 -240 -63h-15q-29 1 -55 1q-79 0 -132 -5l-68 -7l-4 -118q-2 -46 -3 -69.5t-6 -47.5t-10 -33.5t-17.5 -20t-26 -15t-38.5 -10.5q-47 -13 -63 -13q-2 1 -3 1q-14 2 -27 21 q-19 28 -57 28q-23 0 -33.5 9.5t-20.5 41.5q-8 25 -11 42t-2.5 35.5t0.5 46.5q0 10 1 22q0 23 -1 54l-2 92h-191l-9 47q-6 30 -6 52q1 21 6 35zM537 792v-30q0 -54 3 -64q3 -12 24 -12h6q155 11 206.5 20t69.5 27t18 45q0 20 -10 45q-24 58 -84 90q-28 15 -109 17h-15 q-68 0 -86 -13q-20 -15 -23 -125z" />
<glyph unicode="Q" horiz-adv-x="1304" d="M20 613.5q0 109.5 23 165.5q18 46 39.5 107t33 91.5t18.5 36.5q10 10 10 33q0 46 94.5 131t154.5 93q27 0 77 3h21q45 0 109 -8q79 -10 156.5 -25t159 -50.5t135.5 -84.5q62 -56 94 -120t51 -172q31 -173 31 -216t-23 -89q-29 -60 -29 -82q0 -14 -7 -24.5t-9 -16 t10.5 -24.5t46.5 -55q69 -73 69 -99t-40 -71q-27 -30 -44.5 -37.5t-60.5 -6.5q-40 1 -58 8.5t-36 29.5q-25 31 -44.5 34t-60.5 -18q-40 -20 -212 -40l-171 -19l-108 37q-105 36 -176 73q-68 35 -138.5 110t-92.5 135q-23 61 -23 170.5zM314 635q0 -91 31 -133q22 -30 55 -44 t60 -43q44 -47 118 -61q25 -5 49 -5q47 0 90 18q36 15 39.5 22t-15.5 27q-24 28 -72 57q-44 26 -44 65q0 44 55 80q57 38 88 38l1 1q32 0 83 -36q55 -39 80 -39q3 0 6 1q24 5 28 60v11q0 53 -36 120q-39 73 -103 127q-43 36 -67 46t-76 12q-17 1 -32 1q-88 0 -152 -24 q-75 -28 -104 -85q-23 -45 -51 -83q-31 -42 -31 -133z" />
<glyph unicode="R" horiz-adv-x="1296" d="M24 628q-3 33 -3 57q0 52 12 68q17 23 104 27q84 4 98 18q5 5 5 55q0 76 -12 258q-3 56 -23 79q-18 21 -2.5 42.5t48.5 21.5q30 0 46 11q19 11 352 13h65q183 0 226 -5q70 -8 117 -47q18 -16 96 -98q54 -58 69 -84t21 -75q5 -37 5 -74q0 -66 -15 -134q-23 -106 -64 -134 q-30 -23 -30 -37q0 -7 -13.5 -23t-30.5 -30l-43 -35l36 -40q76 -83 132 -156t56 -89q0 -21 -29 -62q-19 -25 -35 -31q-12 -4 -41 -5q-11 0 -23 1q-62 3 -107 18.5t-81.5 49t-63.5 68t-74.5 95t-93.5 109.5q-46 48 -69 63.5t-51 15.5q-46 0 -54 -14q-5 -8 -22 -180t-35 -193 q-20 -23 -123 -32q-35 -3 -61 -3q-39 -1 -57 7q-22 10 -22 38q0 9 2 19q5 15 2.5 29t-8 19.5t-10 47t-4.5 111.5v140l-184 -10zM554 796l72 -20q48 -11 93 -11q20 0 38 2q62 7 105 37.5t43 71.5q0 31 14 41q14 9 14 22q0 5 -1 9q-6 18 -26 13q-7 -2 -22 -2q-19 -1 -50 3 q-55 6 -108 15t-102 12q-10 1 -19 1q-31 0 -35 -9q-6 -9 -11 -97z" />
<glyph unicode="S" horiz-adv-x="1030" d="M20 364q0 49 28 70.5t91 21.5q37 0 57.5 -5.5t29 -14.5t14.5 -20.5t22.5 -24.5t45 -25t89.5 -23t149 -18l107 -9l48 48q19 19 33.5 41t14.5 32q0 31 -64 85.5t-108 61.5q-28 4 -70.5 18t-106 36.5t-114.5 37.5q-55 17 -81 28.5t-43.5 36.5t-20.5 56t-3 94q1 80 7.5 112 t31.5 75q34 59 115 108q80 50 158 72q59 17 98 17q12 0 22 -2q93 -15 237 -77.5t176 -101.5q8 -10 8.5 -17t-6 -17t-15.5 -20.5t-23 -32.5t-26 -48q-7 -15 -12 -22t-11 -14.5t-17.5 -8l-23 -1t-36 6t-47.5 12.5t-66 19q-83 25 -139 25q-24 0 -44 -5q-65 -15 -65 -76 q0 -26 19.5 -42t101.5 -56q37 -18 62 -29.5t40 -18t28 -10t17.5 -4t17 -1t19.5 -1.5q17 -2 77.5 -56.5t75.5 -59.5q25 -9 58.5 -93.5t33.5 -140.5q0 -49 -20.5 -109t-45.5 -83q-30 -28 -113 -59q-68 -25 -98 -25q-7 0 -12 1q-27 7 -45 -7q-38 -31 -202 -33h-15 q-151 0 -181 30q-15 15 -44 15q-12 0 -45 18t-68 44q-65 48 -83 81.5t-18 107.5z" />
<glyph unicode="T" horiz-adv-x="1165" d="M22 1055q-2 5 -1 16q0 17 4 49q9 74 16.5 90t34.5 16q32 0 47 15q14 14 371 22q265 5 347 11.5t103 6.5q56 0 76.5 -6.5t43.5 -31.5q36 -39 53.5 -67t17.5 -40.5t-2.5 -24t-6.5 -17.5t5 -21q12 -19 12 -30q0 -7 -5 -11q-18 -12 -159 -13h-11q-169 0 -229 -10l-55 -10v-75 q0 -80 10 -276q10 -179 10 -214v-5v-23q0 -39 1 -144l2 -147l-52 -24q-48 -23 -107 -23h-16q-68 4 -94 35q-17 21 -20 67q-1 17 -1 54q0 61 3 177q1 53 1 106q-1 133 -9 267q-12 188 -31 220q-7 12 -145 12t-179 21q-31 15 -35 28z" />
<glyph unicode="U" horiz-adv-x="1173" d="M20 1156q-1 27 -1 46q0 43 6 44q7 8 53 8q38 0 102 -6q142 -12 175 -28l44 -23l1 -119q0 -31 3 -116.5t10 -206.5t21.5 -210t34.5 -89q8 0 27.5 -14t44.5 -28t55 -24q15 -5 31.5 -5.5t35.5 5.5q37 10 73 42l49 45l11 337q10 333 27 376l16 39l93 -10q42 -4 74 -10.5 t42.5 -10t19.5 -3t20 7.5q31 20 42 6q16 -21 20 -191q1 -49 2 -147q1 -73 1 -130q0 -201 -11 -208q-11 -13 -8 -22.5t2.5 -43.5t-13.5 -70q-4 -10 -22 -77t-35.5 -103t-39.5 -36q-18 0 -55 -39q-26 -27 -42 -33q-25 -9 -178 -19q-104 -7 -178 -13q-44 -2 -69.5 -2.5 t-34.5 2.5q-17 5 -29.5 13.5t-39.5 8.5t-112 50t-112 55q-38 8 -64 50q-22 36 -39.5 156.5t-17.5 232.5q0 29 -8 130.5t-15.5 198t-11.5 184.5z" />
<glyph unicode="V" horiz-adv-x="1148" d="M20 1183v73l52 -9q54 -9 120 -18l69 -10l85 -172q46 -93 101.5 -221t87 -200.5t36.5 -72.5q6 0 33.5 63t56 131t32.5 74q12 16 55.5 137.5t56.5 174.5q14 61 47 87q19 15 39 15q15 0 30 -9q30 -12 37 -8q8 2 37 8q15 3 33 3q16 0 35 -2q45 -6 53 -14t12 -50q1 -6 1 -14 q0 -73 -65 -227q-71 -170 -145 -319t-74 -167q0 -8 -3 -13t-9 -12.5t-19.5 -39.5t-30.5 -84q-21 -66 -40 -101.5t-47 -63.5q-34 -34 -55 -42t-80 -10h-24q-63 0 -81 14q-29 24 -88.5 159t-136.5 329t-113 273q-43 95 -43 119q0 14 -27.5 85t-27.5 134z" />
<glyph unicode="W" horiz-adv-x="1855" d="M49 1238q18 6 63 6h24q65 -2 115 -13q17 -4 28.5 -16.5t25.5 -44.5t28 -70.5t45 -113t69 -152.5l77 -168q38 -86 47 -86q6 0 12.5 20t26.5 73.5t50 112.5q40 79 58 132.5t27 73.5l84 196q17 38 44 38q23 0 39 8t22 13q2 2 7 2q7 0 19 -6q20 -9 55 -38q27 -22 45.5 -44 t18.5 -31q0 -21 103 -241t103 -240q0 -5 6.5 -9.5t14.5 -4.5q9 0 14.5 8.5t5.5 20.5q0 27 29.5 94t66 163.5t48.5 184.5q8 52 21 67.5t68 34.5q29 10 89 10q18 0 40 -1q90 -4 123 -21q24 -13 24 -42q-1 -4 -1 -6q-2 -34 -31 -52q-25 -16 -47.5 -82t-25.5 -132 q-2 -39 -30.5 -119.5t-74.5 -199t-72 -206.5q-18 -61 -33.5 -95.5t-22.5 -41.5t-13.5 -19.5t-11.5 -38.5q-7 -40 -25.5 -58.5t-41.5 -10.5q-20 7 -30 -8q-8 -14 -45 -14q-8 1 -17 1q-52 4 -76 23q-29 25 -61 93l-84 179q-119 248 -152 341q-9 26 -15.5 38t-14 9.5t-11.5 -9 t-15 -27.5q-14 -27 -24 -43q-39 -63 -79 -193t-42 -134q-19 -48 -26 -91q-8 -50 -46 -114q-35 -59 -53 -59h-3q-38 12 -69 12q-8 1 -18 -1q-14 -2 -29 -2q-23 0 -44 4q-34 8 -50 38q-22 43 -147 432.5t-165 469.5q-27 52 -27 94q0 39 -21 48q-21 8 -21 25q0 22 29 33z" />
<glyph unicode="X" horiz-adv-x="1148" d="M24 120q-3 4 -3 9q-1 7 3 15q6 14 18.5 27t28 31.5t22.5 31.5q42 72 103 149t105 125t73 91q23 35 23 56q0 5 -1 9q-6 19 -29.5 55t-97.5 140l-55 77q-12 17 -39.5 47.5t-43.5 53t-16 38.5q0 26 -14 34t-28 63q-9 35 -9 53q0 10 3 15q4 9 22 9q7 0 17 -1q34 -5 68.5 -16 t71 -22t47.5 -11q30 0 81 -69q127 -168 164 -214.5t43 -46.5q9 0 74 86q143 191 176 226q44 48 89 57q17 4 86 8q11 1 21 1q57 0 81 -20q20 -16 20 -33q0 -23 -31 -23q-8 0 -14 -8.5t-6 -21.5q0 -22 -105 -173t-181 -238q-43 -48 -43 -67q0 -13 48 -76t48 -67q0 -6 39 -54 t86 -108t62 -90q13 -28 37 -50.5t37 -32.5t11.5 -27t-29.5 -43q-19 -18 -49 -26t-101 -13l-119 -9l-39 42q-28 30 -91 114.5t-87 125.5q-13 24 -46 48q-22 15 -31.5 12.5t-36.5 -28.5q-39 -37 -57 -73q-19 -36 -100.5 -136.5t-91.5 -100.5q-6 0 -10.5 4.5t-10 9.5t-30 9.5 t-66.5 4.5q-45 0 -68 6t-29 15z" />
<glyph unicode="Y" horiz-adv-x="1126" d="M21 1173q-1 11 -1 20q0 22 4 31q5 11 26 14q15 2 42 -6t59 -12h12q34 0 100 14q8 2 16 2q36 0 71 -41q43 -50 115 -197q85 -171 104 -171q20 0 20 14t115 189t134 191q42 28 115 28q14 0 28 -1q93 -6 114 -27q10 -10 10 -20q0 -8 -7 -19q-7 -13 -18 -27t-32 -44t-40 -63 q-43 -74 -110 -170q-141 -204 -176 -301q-30 -87 -30 -242v-37q1 -31 1 -57q0 -111 -11 -125q-15 -17 -49 -17q-35 0 -64.5 -8.5t-42.5 -14.5q-5 -2 -12 -2q-8 0 -18 4q-19 6 -46 33l-44 44l9 120q7 92 25 175q9 41 4 54.5t-45 53.5l-8 8q-63 65 -63 74q0 8 -110 166 t-110 167q0 8 -21 38.5t-42.5 75.5t-23.5 86z" />
<glyph unicode="Z" horiz-adv-x="1120" d="M24 224q10 58 32 72q19 13 57 65t38 64q0 6 60 78t65 87q5 12 90.5 102t173.5 175q57 55 57 69q0 2 -1 3q-8 12 -193 12q-263 0 -312 43q-11 9 -19 70t-17 78q-7 14 -7 32q0 15 5 33q7 26 19 34.5t52 13.5q21 3 33 3h17h25q30 0 65.5 -1.5t126.5 -4.5t203 -6 q221 -5 301 -11t89 -17q15 -18 45 -10q27 7 48.5 -9t21.5 -44t-52.5 -112t-94.5 -125q-45 -43 -45 -52q0 -5 -82.5 -94t-82.5 -105q0 -19 -18 -26q-16 -6 -109 -121t-93 -128q0 -3 29.5 -5.5t81.5 -3.5q26 0 53.5 -0.5t56.5 0.5l220 3l49 -44q30 -27 42 -51t19 -68 q4 -26 4 -46q0 -78 -60 -78q-22 0 -37 -15q-8 -8 -109 -8t-295 8q-190 7 -285 11.5t-158.5 11t-81 13.5t-23.5 19q-8 16 -8 42q0 19 4 43z" />
<glyph unicode="[" />
<glyph unicode="\" horiz-adv-x="741" d="M22 1216q9 16 71.5 7.5t71.5 -27.5q19 -39 40.5 -71.5t35 -59t25.5 -73.5q9 -34 20.5 -57.5t29.5 -50.5t69 -119t119 -225q147 -289 161 -304q28 -32 44 -75.5t10 -67.5q-11 -44 -33 -51t-68 17q-35 18 -55.5 40.5t-49 73.5t-96.5 187l-134 268q-36 73 -59 106t-52 93 q-71 145 -112 207q-13 20 -29 95.5t-9 86.5z" />
<glyph unicode="]" />
<glyph unicode="a" horiz-adv-x="1359" d="M20 451q0 61 23.5 81.5t100.5 27.5q35 3 49.5 4t36.5 5t28.5 5t19.5 8t16 11t11.5 15.5t12.5 20.5t12 28q34 77 34 102q0 13 19.5 61.5t53.5 128.5t53 129q21 55 45 92.5t42.5 56t44.5 28.5t40 11t39 1q47 0 69 -7.5t52 -33.5q46 -41 77 -113l62 -141q18 -41 31.5 -75.5 t23.5 -57t30 -57.5q33 -59 33 -80q0 -12 24.5 -74.5t81 -175.5t124.5 -220q22 -36 28 -58q2 -9 2 -15q-1 -10 -5 -15q-8 -9 -20.5 -14t-26.5 -13t-19 -21q-10 -16 -56 -16q-16 0 -36 2q-78 8 -88 17q-12 12 -50 119l-39 108l-87 3q-24 1 -54 1q-83 0 -211 -8l-177 -10 l-31 -94q-31 -95 -45 -109t-70 -14q-55 0 -72 -19q-10 -12 -32 -16q-9 -2 -19 -1q-12 1 -25 3q-23 4 -43.5 12.5t-31 22.5t-5.5 27q19 48 39 119q17 59 17 72q0 3 -1 3q-5 6 -21.5 6t-34 2t-35 10.5t-29 37.5t-11.5 77zM594 572q0 -10 64 -14q52 -4 108 -4h30q71 2 79 10 q3 3 3 12q0 38 -58 170q-72 164 -86 164q-6 0 -13 -15t-15 -39.5t-12 -34.5q-16 -33 -57 -135q-43 -108 -43 -114z" />
<glyph unicode="b" horiz-adv-x="1269" d="M21 609v12q0 71 11 87q12 17 83 32l55 12l4 166q1 41 1 71q0 45 -2 67q-3 36 -16 45q-20 17 -20 36.5t20 30.5t31 52l11 40l171 10q83 5 141.5 9t68.5 6q11 3 31 3q7 0 11 -1h12q3 -1 48 -5t106 -8q237 -17 334.5 -70t114.5 -175q3 -20 3 -43q0 -66 -23 -156 q-31 -122 -75 -173l-33 -40l42 -33q40 -32 72 -93q19 -39 23 -69q2 -14 2 -37q0 -25 -2 -61q-7 -100 -31.5 -159t-61.5 -63q-49 -6 -95 -15t-71 -14t-92 -11q-53 -4 -119 -4h-38q-90 2 -267 5q-147 5 -183 15q-48 13 -65 59q-13 37 -24 184q-1 6 -1 10q-7 102 -15 114 q-7 11 -60 11q-59 0 -80 31.5t-22 121.5zM479 882q0 -82 16 -102q9 -12 30 -12q16 0 38 6q38 12 128 12q24 0 52 -1h29q84 0 113 10q34 12 34 54q0 29 -42.5 65.5t-92.5 49.5q-53 14 -169 23q-55 4 -86 4q-34 0 -39 -5q-11 -11 -11 -104zM482 390q3 -27 19 -33t102 -13 q180 -14 254 -14h13q70 2 84 22q11 16 11 33q-1 21 -19 42q-34 37 -93 49q-23 4 -46 5q-39 0 -79 -12q-29 -11 -78.5 -13.5t-85.5 -2.5q-34 -1 -60 -15q-22 -13 -23 -39q0 -4 1 -9z" />
<glyph unicode="c" horiz-adv-x="1030" d="M20 646q2 48 15.5 99t25.5 82.5t25 61t15 35.5q21 67 123.5 166.5t193.5 140.5q50 23 150 32q43 4 83 4q53 0 101 -7q39 -5 65.5 -22t76.5 -69q48 -50 64 -75t16 -51q0 -49 -27 -94.5t-56 -45.5q-20 0 -30 -8t-12.5 -16t-18 -12.5t-46.5 3.5q-171 38 -204 42q-6 1 -13 0 q-29 0 -66 -12q-68 -23 -110.5 -70.5t-54.5 -101.5q-8 -36 -9 -70q1 -18 3 -36q6 -52 30 -89q16 -24 17 -41.5t4.5 -31.5t27.5 -37q80 -76 201 -77q81 0 182 35q95 32 114 32h1q13 -2 22 -22q1 -3 4 -10q15 -35 34 -35q22 0 37 -32q6 -13 6 -29q0 -23 -12 -51 q-21 -50 -90 -89q-63 -35 -91 -59q-26 -23 -166 -23q-3 1 -6 1q-145 0 -225 24q-127 37 -250 176t-144 269q-6 53 -6 95v18z" />
<glyph unicode="d" horiz-adv-x="1193" d="M22 1238q8 16 40 16q31 0 51 13q21 13 170 13t217 -13q130 -26 204 -47.5t88.5 -32t31 -21t46.5 -16.5q34 -7 110.5 -74t98.5 -108q71 -137 83 -173t12 -116t-17.5 -148.5t-39 -104t-39 -64t-17.5 -39.5q0 -25 -92.5 -89.5t-168.5 -92.5q-100 -38 -197 -55t-225 -19h-32 q-60 0 -86 3q-32 4 -48 19q-28 24 -76 24q-51 0 -61 17q-9 15 -17 491t-25 505q-11 19 -8 28t10.5 14t15 7.5t5.5 9t-18 18.5q-18 14 -18 26q0 5 2 9zM399 632q-1 -81 -1 -139q0 -134 5 -138q1 -1 7 -1q14 0 53 6q29 5 46 5q16 0 21 -4q8 -6 27 -6q22 -1 59 7q70 14 111 41 q39 24 76.5 94t37.5 119q0 40 12 59q3 11 3 20q0 11 -4 23q-6 16 -12 36t-21.5 42.5t-33.5 44.5t-47.5 43t-64 37.5t-82.5 29t-103 17.5q-26 3 -42 3q-14 -1 -20 -3q-12 -4 -17 -29q-7 -36 -10 -307z" />
<glyph unicode="e" horiz-adv-x="1130" d="M21 632q2 92 9 107q6 12 35 26q43 20 77 24l34 4v399l241 34q84 12 183 18t153 8t58 6q3 3 33 3q28 -1 78 -3q106 -6 128 -12q24 -8 46 -41q15 -23 15 -36t-21 -54q-17 -33 -28 -42t-28 -4q-28 9 -44 -5q-10 -9 -98.5 -15.5t-191 -12.5t-129.5 -11l-44 -8v-201l52 -8 q53 -9 99 -11q19 -1 34 -1q24 0 40 2q28 3 49 5.5t33.5 1.5t18.5 -9q17 -20 23 -118q1 -26 1 -46q0 -54 -11 -61q-14 -9 -165 -13q-30 -1 -49 -1.5t-39.5 -2t-32 -3t-23.5 -5.5t-18 -7.5t-12 -10.5t-7.5 -14t-3 -19t-1.5 -23t1 -28l4 -77l96 -10q98 -11 172 -11q24 0 46 2 q44 2 81 2t69 -2q62 -4 88 -30q20 -19 26 -39.5t6 -70.5q0 -33 -2 -51t-15.5 -34.5t-30.5 -23.5t-60 -13t-89.5 -7.5t-132.5 -2.5q-524 -8 -546 -22q-5 -3 -10 -3q-15 0 -24 36q-15 66 -15 289v29v108l-52 -6q-47 -5 -65 -15q-25 -16 -35 35q-6 32 -6 88v17z" />
<glyph unicode="f" horiz-adv-x="1067" d="M25 597q11 18 18 92q4 52 12.5 65t42.5 25q35 12 42.5 28t15.5 91q6 57 6 96q0 17 -2 30q-3 45 -3 85t11 73q3 9 21 69q11 14 177 14q70 0 169 -3q331 -8 367 -19q28 -9 57 -9q13 0 27 2q37 5 51 -9t-5 -37q-18 -20 -1 -37q16 -16 16 -66.5t-16 -60.5q-11 -7 -195 -14 q-160 -6 -281 -6h-34h-6q-67 0 -84 -24q-15 -20 -15 -85q0 -15 1 -32l4 -86l172 -11q185 -12 198 -38q4 -7 -2 -17q-11 -21 -6.5 -43t0 -56t-26.5 -57q-20 -22 -44.5 -27.5t-103.5 -6.5q-120 -2 -144 -9q-32 -10 -40 -47q-4 -22 -6 -121q-5 -225 -50 -286q-11 -14 -46 -14 q-13 0 -29 2q-47 5 -67.5 19t-21.5 29t-5 39t-19 41q-14 16 -18.5 65t-7.5 206l-1 78h-47q-39 0 -67 25q-19 17 -19 32q0 8 5 15z" />
<glyph unicode="g" horiz-adv-x="1116" d="M41 559q-20 46 -20 108q0 64 22 144l33 121q12 47 32.5 73t99.5 97q78 71 117 91t144 46q70 18 112 18q4 0 7 -1q44 -1 176 -24q117 -21 150 -37q49 -25 49 -80q0 -12 -2 -26q-8 -50 -47 -131q-21 -44 -40 -61t-44.5 -13t-51 16t-74.5 27t-101 19q-33 2 -55 2t-33 -2 q-22 -5 -59 -33q-48 -36 -68.5 -89.5t-23.5 -147.5v-15q0 -62 16 -105q17 -47 71 -116l40 -51l136 6q63 3 100.5 8t57.5 10.5t25.5 19.5t4.5 25.5t-5.5 37.5t-4.5 47q0 19 -13 22q-4 1 -13 1q-20 0 -61 -4q-24 -2 -43 -2q-42 0 -57 10q-21 16 -29 86q-2 15 -2 27q0 53 27 63 q30 11 181 11h49l225 -2l13 -35q15 -40 15 -177q0 -60 -3 -137q-9 -258 -35 -308q-12 -24 -31.5 -31.5t-85.5 -13.5q-34 -3 -59 -3q-34 0 -51 6q-30 11 -20 43q6 18 -0.5 27.5t-22.5 7.5t-36 -16q-48 -32 -71 -42.5t-34 -9.5t-42.5 8t-72.5 8q-35 1 -55.5 5.5t-32 11.5 t-45 28.5t-70.5 41.5q-95 53 -151 128t-138 262z" />
<glyph unicode="h" horiz-adv-x="1249" d="M22 602q-2 10 -1 22q0 30 10 71l17 68l80 4q81 4 93 16q7 21 3 62t-12 106.5t-8 82.5q1 42 10 94.5t17 60.5q11 11 82 11q53 0 139 -6l34 -2l7 -198q5 -135 9 -156q8 -42 42 -53q23 -7 109 -7h41q26 1 43 1l169 2l7 407l41 33q26 21 52 27t93 6q97 0 117 -18 q12 -11 12 -43q0 -21 -5 -51q-7 -44 -11 -293t-7.5 -479t-11.5 -246q-13 -25 -61 -25q-46 0 -55 -14q-8 -13 -37 -13h-4q-32 1 -42 15q-17 27 -32 124t-15 179q0 119 -20 135q-20 17 -34 8t-200 -9q-187 0 -193 -17q-5 -16 -10 -169q-7 -205 -38 -218q-7 -4 -16 2 q-4 4 -13 1t-16.5 -8.5t-31 -10t-56.5 -2.5q-47 3 -57 9.5t-14 35.5q-3 27 -10 41.5t-13 19.5t-11 16t-5 40.5t7 83.5q10 78 10 108q0 13 -2 16q-3 6 -31 6q-17 0 -42 -2q-49 -5 -62 0.5t-32 38.5q-29 50 -35 87z" />
<glyph unicode="i" horiz-adv-x="376" d="M23 1191l8 76l49 -7q194 -30 234 -60l33 -25l6 -482q3 -221 3 -331q0 -67 -1 -94q-3 -72 -25 -114q-15 -29 -27.5 -41.5t-22.5 -8.5q-21 8 -33 -25q-8 -21 -17 -25q-3 -1 -6 -1q-10 0 -30 6q-38 12 -83 59l-44 46l-7 218q-1 31 -3.5 127.5t-4.5 156.5t-5.5 140t-8 135.5 t-9.5 87.5q-9 54 -9 104q0 30 3 58z" />
<glyph unicode="j" horiz-adv-x="903" d="M23 271q8 73 38 111q8 10 13.5 15.5t14 9t14.5 4.5t22.5 -0.5t28.5 -3.5t41.5 -6.5t54.5 -8.5q41 -6 75 -20t51 -24t46 -10t69 17q36 15 40 19q22 18 27 103q3 60 3 286v124l-2 354l316 -8l3 -151q1 -28 1.5 -74.5t1.5 -169.5v-94q0 -67 -1 -126q-1 -97 -8 -187t-18 -112 q-15 -28 -31 -28q-8 0 -13.5 -8t-6.5 -20q-2 -29 -23 -52t-45.5 -34.5t-48.5 -26.5t-29 -29q-13 -33 -76 -51.5t-162 -18.5q-71 0 -109 6.5t-49.5 15.5t-21 18.5t-40 16t-89.5 6.5q-33 0 -46.5 8t-27.5 35q-15 30 -15 76q0 18 2 38z" />
<glyph unicode="k" horiz-adv-x="1058" d="M23 312q4 28 8.5 451.5t12.5 458.5q10 45 39 49q15 3 32 3q23 0 51 -5q49 -8 74 -24q29 -18 58 -65q20 -33 24 -69q2 -21 2 -69q0 -36 -1 -89q-1 -52 -1 -89q0 -92 7 -92q9 0 26 31q17 32 110 150t154 184q21 23 37 37t27.5 23t31.5 15t32.5 8.5t47 8.5t59.5 11 q53 9 72 9q6 0 8 -1q12 -3 24 -12.5t38 -9.5q32 0 32 -5q0 -6 4 -16q6 -14 6 -20q0 -7 -6 -13q-6 -8 -24 -15q-14 -5 -24.5 -15t-10.5 -18q0 -23 -79 -114t-161.5 -179t-86.5 -99q-3 -7 20 -35t56.5 -69t47.5 -69q16 -31 102.5 -130t86.5 -121q0 -14 19 -40q18 -24 34 -58 q11 -24 11 -50q0 -10 -2 -20q-11 -60 -31 -68q-4 -1 -10 -2q-24 0 -77 26q-47 23 -119 83.5t-72 76.5q0 2 -18 22.5t-42.5 50.5t-36.5 53q-22 43 -77.5 107t-70.5 64q-11 0 -70 -55t-69 -55q-14 0 -29 -35t-6 -49q6 -10 -1.5 -21t-14.5 -25.5t4 -52.5q13 -39 13 -86v-13 l-2 -55l-77 -13q-38 -6 -59 -6q-8 0 -14 1q-18 4 -54 31q-68 52 -68 150q0 21 3 43z" />
<glyph unicode="l" horiz-adv-x="921" d="M20 66v199q0 106 6 263t8 232v28q0 70 -6 176q-7 72 -7 110q1 6 1 12q2 36 12 59q12 24 10 38.5t-11 18.5t-13 12q-1 2 0 4q0 7 8 16q14 17 84 17q15 -1 32 -1q99 -4 134 -27q29 -19 42.5 -57.5t18.5 -118.5q4 -67 4 -191v-52v-63q0 -362 33 -374q18 -5 230 -23 q105 -9 160 -9q57 0 63 9q12 18 22 18q17 0 31 -51q19 -69 19 -152q0 -15 -1 -30q-2 -47 -12 -55q-12 -10 -162.5 -12t-325 -3t-221.5 -7q-25 -4 -49 -4q-32 0 -61 7z" />
<glyph unicode="m" horiz-adv-x="1302" d="M20 1096q2 36 15 50q19 23 12 48q-6 18 15.5 37.5t47.5 26t45 -4.5q15 -12 42 -14t52.5 0.5t56.5 -3.5t53 -26q51 -45 122 -162.5t88 -141.5q47 -65 47 -77t19 -28q9 -3 14.5 -5t18.5 15.5t28.5 44t44.5 81.5q40 75 83.5 133t71 82t45.5 43.5t18 33.5q0 11 8.5 22 t33.5 19q18 6 42 6q9 0 19 -1q35 -3 101.5 -32.5t83.5 -49.5q17 -19 28 -517q7 -304 6 -431q0 -80 -2 -88q-2 -7 -25.5 -23t-53.5 -30l-73 -35l-41 28q-28 20 -37.5 21t-25.5 -16q-15 -16 -22 -16t-22 15q-17 17 -22.5 156t-8.5 275.5t-13 146.5q-7 7 -26.5 -11t-41 -49.5 t-34.5 -61.5q-13 -31 -52.5 -79t-43.5 -69t-39 -27q-18 -3 -36 -3q-16 0 -32 2q-33 5 -40 11q-18 14 -35.5 23.5t-23.5 12.5t-18.5 20.5t-28 49.5t-45.5 97q-86 189 -122 195q-5 1 -8 -2q-13 -13 -13 -321v-82q0 -150 -3 -188q-4 -47 -26 -75t-59 -36q-22 -4 -67 -4 q-30 0 -71 2q-20 1 -30 16q-10 16 -13 50q-2 21 -2 45q0 17 1 35q2 46 5 120t5 156q1 41 1.5 91.5t-1.5 110.5q-2 120 -10 245q-6 87 -6 127v16z" />
<glyph unicode="n" horiz-adv-x="1075" d="M20 705q0 520 13 527q3 2 10 2q23 0 92 -18q90 -22 137 -45q30 -14 52 -37.5t36.5 -49t48.5 -71t79 -91.5q39 -39 100.5 -113t103.5 -124t48 -50q4 0 5 24v22q-1 19 -1 47q-2 44 -3.5 92t-4.5 112.5t-4 112.5q-1 24 -1 44q1 55 5 84q6 39 22 54.5t54 18.5q41 4 61 11 l41 15q21 7 35 7h6q15 -2 35 -17q21 -16 25.5 -76.5t5.5 -173t14 -198.5q9 -65 16 -241q4 -103 4 -163q0 -43 -2 -64q-3 -30 -4.5 -63.5t-2 -52.5t-2 -39.5t-5 -30.5t-10 -19t-17 -12t-27.5 -3q-25 0 -40.5 -14t-24.5 -27.5t-18 -13.5q-15 0 -91 79t-76 95q0 17 -27 37 q-20 14 -65 71.5t-45 69.5q0 6 -24 30.5t-75 79t-98 113.5q-19 24 -36 42.5t-29 27.5t-15 6q-11 -11 -20 -238q-8 -178 -24.5 -250.5t-59.5 -108.5q-41 -35 -86 -35q-7 0 -14 1q-53 6 -76 53q-13 27 -17 132t-4 429z" />
<glyph unicode="o" horiz-adv-x="1296" d="M28 584q-8 53 -8 94q0 44 9 74q13 41 48.5 114t46.5 80t11 35q0 27 90 116t137 109q26 11 104 22t144.5 19t70.5 12q8 9 16 9q1 0 1 -1q8 -1 20 -5q13 -6 28 -14t43.5 -20.5t60.5 -22.5q78 -25 123 -54q41 -25 130.5 -114t89.5 -104q0 -14 17 -45.5t37 -92.5t25 -142 q2 -39 2 -66q0 -29 -2 -45q-6 -30 -39 -97q-51 -101 -84 -145t-101 -101q-65 -54 -157 -91t-161 -37q-55 0 -206.5 29t-190.5 47q-48 21 -59 21q-30 0 -93.5 73t-97.5 147q-39 85 -55 196zM394 667q-1 -12 -1 -19q-1 -10 1 -14q4 -8 7 -15t5 -10t-4 -19q-3 -8 -3 -18 q0 -22 13 -56q19 -48 50 -77q39 -37 113 -59q55 -17 97 -16q15 0 29 2q50 8 102.5 34t78.5 55q24 27 36 125q5 43 5 77q0 43 -8 73q-11 40 -70.5 102t-102.5 79q-27 11 -55 11q-15 0 -31 -3q-44 -9 -123 -49l-103 -52l-23 -87q-10 -39 -13 -64z" />
<glyph unicode="p" horiz-adv-x="1214" d="M20 429l1 86q1 63 7.5 77.5t41.5 31.5q32 15 64.5 21t48 6.5t29.5 11.5t18.5 40t4.5 89q0 91 -10 122.5t-11 88.5q-2 72 -12 134l-10 56l108 16q29 4 59 8.5t49.5 7t39 5.5t31.5 5l24 4t18 3.5t12 3.5t8.5 4t4.5 5q6 11 45 11q22 0 55 -4q91 -10 166 -35q98 -34 179 -74 t106 -67q36 -39 63 -104.5t33 -126.5q2 -16 2 -35q0 -60 -17 -142q-23 -109 -51 -145q-27 -34 -39 -66q-15 -40 -100 -68q-80 -26 -177 -26h-14h-44q-75 0 -139 -5l-68 -5l-5 -111q-5 -120 -20.5 -150t-79.5 -38q-23 -3 -41 -3q-13 0 -24 1q-23 5 -30 13.5t-21 16t-38 7.5 q-29 0 -49 34q-17 28 -17 63q0 7 1 14q2 16 2 58q0 28 -1 68l-2 93h-201zM532 671l74 1q84 2 160 19.5t87 38.5q8 16 8 33q0 24 -15 50q-28 45 -89 72q-34 15 -108 17h-14q-62 0 -80 -13q-21 -15 -22 -117z" />
<glyph unicode="q" horiz-adv-x="1304" d="M22 636q7 116 44 185q37 67 37 89q0 18 20.5 59.5t20.5 51.5q0 17 50 85t85 99q24 21 56 34t57.5 18.5t63.5 6.5h24q21 0 32 -1q18 -1 53 -5.5t36 -4.5q108 -11 196 -37t146.5 -56t104 -74t70 -79.5t43 -85t25 -77.5t14.5 -70q2 -12 3 -17q17 -90 21 -150q1 -19 1 -35 q0 -34 -5 -52q-8 -27 -17.5 -42.5t-18.5 -31.5t-9 -38q0 -19 -10.5 -34.5t-1.5 -31t53 -62.5q69 -73 69 -98q0 -10 -14.5 -30.5t-35.5 -38.5q-33 -29 -51 -35q-10 -3 -25 -3q-12 0 -28 2q-38 6 -64 19.5t-34 23t-32.5 14t-59.5 -7.5q-62 -17 -230 -35q-96 -10 -140.5 -10.5 t-54 5t-36.5 16.5t-76 19q-108 17 -218.5 112t-143.5 199q-22 69 -22 156q0 23 2 48zM309 624q0 -54 14 -93.5t34.5 -59t41 -32t34.5 -21.5t14 -18q0 -16 48 -41.5t90 -32.5q15 -2 32 -2q34 0 73 9q59 14 59 33q0 8 -19 30.5t-44 44.5q-60 52 -60 90q0 37 54 73q58 40 91 40 h1q32 -1 93 -43q64 -43 83 -43q4 0 6 1q7 4 11 25q2 11 2 25t-2 31q-4 35 -17 74.5t-46.5 85t-83.5 82.5t-74 46q-23 8 -62 8h-9q-123 -3 -186 -34t-121 -116q-38 -55 -47.5 -82.5t-9.5 -79.5z" />
<glyph unicode="r" horiz-adv-x="1288" d="M21 620q-1 27 -1 48q0 70 10 80t99 18t99 18q8 8 8 57q0 29 -3 71l-11 178q-4 63 -22 85q-19 23 -6.5 37t69.5 32q64 21 344 21q277 0 287 8q5 5 16 5q26 0 83 -30q81 -42 94 -74q4 -11 65.5 -79.5t61.5 -93.5q0 -19 12 -39q13 -21 13 -59t-20 -172q-17 -96 -131 -205 l-39 -37l60 -81q29 -40 53.5 -68.5t33.5 -37t13.5 -15.5t4.5 -17q0 -18 28 -33q27 -14 27 -45q0 -34 -30 -61q-19 -16 -39 -21q-14 -4 -39 -4q-10 0 -22 1q-112 7 -162.5 36t-122.5 128q-122 168 -163.5 211t-83.5 43q-51 0 -59 -14q-6 -10 -22.5 -187.5t-34.5 -191.5 q-13 -11 -96 -23q-47 -7 -81 -7q-74 0 -85 33q-3 10 0 23q3 18 2.5 20t-4 13.5t-7.5 24t-8 51.5t-5 96l-3 141h-179zM548 783l61 -19q47 -12 94 -12q18 0 35 2q64 6 112 35t48 66q0 21 14 34t14 26t-24 16t-83.5 6.5t-111.5 13.5q-71 14 -107 14q-30 0 -36 -10t-12 -91z" />
<glyph unicode="s" horiz-adv-x="1028" d="M22 352q6 37 32 61q22 20 39 24.5t56 -1.5q32 -5 54.5 -17.5t34.5 -26.5t22 -27.5t25 -22.5t36 -9q20 0 31 -3.5t18.5 -8t45.5 -10.5t104 -11l134 -10l48 47q19 19 33 40.5t14 32.5q-1 51 -53 97t-130 66q-33 9 -99 28t-168 55t-127 57q-24 21 -30 43q-4 16 -5 68 q0 18 1 41q2 118 35.5 181.5t124.5 124.5q84 56 92 56q9 1 77.5 20t74.5 20h4q28 0 148 -45q130 -49 169 -75q65 -45 76 -45q12 0 37 -27q15 -17 16 -26.5t-7 -17.5t-27 -34t-36 -62q-25 -52 -34 -58q-9 -5 -56 10t-104 33q-56 20 -120 26q-15 2 -28 1q-44 0 -76 -16 q-44 -23 -44 -55q0 -20 21 -36t93 -50q62 -29 111 -46.5t68 -22t41 -17.5t49 -42q50 -54 67 -54q58 0 96 -231q3 -17 3 -35q0 -61 -35 -129q-45 -87 -97 -87q-21 0 -77 -18q-44 -14 -67 -14q-6 0 -11 1q-27 7 -50 -12q-28 -23 -182 -25h-31q-127 0 -165 19q-46 22 -68 22 q-10 0 -53 22t-89.5 60t-53.5 71q-9 44 -9 76q-1 13 1 24z" />
<glyph unicode="t" horiz-adv-x="1167" d="M22 1028q-2 6 -1 21q0 20 3 56q8 87 15.5 104.5t32.5 9.5q29 -9 48 7t373 23q265 5 348 11.5t103 6.5q70 0 98.5 -19t71.5 -95q15 -27 19 -44.5t-1 -25t-10 -12.5t-5 -11t11 -17q17 -17 17 -28q0 -7 -8 -11q-24 -11 -168 -12q-165 0 -231 -11l-55 -9l4 -224 q1 -81 4.5 -148.5t7 -101.5t6 -59t2.5 -35.5t-4 -16.5q-6 -9 -6 -60q0 -35 3 -91l8 -133l-45 -23q-46 -22 -126 -22q-93 0 -109 46q-11 33 -12 171q0 54 2 124q2 59 2 117q0 128 -8 246q-11 172 -30 202q-10 15 -147 15q-138 0 -178 20q-31 15 -35 29z" />
<glyph unicode="u" horiz-adv-x="1159" d="M20 1134q-1 24 0 43q0 48 6 60q12 1 68 1h5q54 0 131 -9q81 -9 111 -24q28 -14 33 -20q5 -5 6 -27v-11q0 -21 -2 -57q-1 -11 -1 -24q0 -43 8 -115q6 -60 11.5 -143.5t9.5 -140.5t10 -112.5t15.5 -83.5t22.5 -28q14 0 60 -35q47 -36 106 -36h4q62 2 105 41q1 0 8.5 6.5 t9 8.5t8.5 12t9.5 19.5t8.5 29.5t8 42.5t6 57.5t5.5 76t2.5 96.5t1 120.5q0 79 2 136t8.5 91.5t12 54.5t18 29t19.5 11t23 3q9 1 19 1q22 0 47 -4q37 -6 62 -14.5t51.5 -11t34.5 7.5q19 15 29 8q14 -8 16 -338v-97q0 -233 -10 -240q-11 -13 -8.5 -21t1.5 -41t-13 -70 q-5 -14 -13 -46t-16 -59t-18.5 -54.5t-23.5 -43.5t-27 -16q-18 0 -37 -28q-18 -27 -94 -40q-109 -19 -188 -28.5t-124 -13.5q-19 -2 -37 -2q-25 0 -47 4q-39 6 -52 9.5t-43.5 18t-44.5 19.5q-44 18 -86.5 47.5t-75.5 35.5q-44 8 -70 51q-21 35 -39 155t-18 227 q0 50 -7.5 152t-15 187.5t-11.5 171.5z" />
<glyph unicode="v" horiz-adv-x="1161" d="M20 1172q0 47 5.5 57.5t29.5 10.5q21 0 53.5 -6t73.5 -15.5t62 -13.5q25 -5 44.5 -33t68.5 -129q76 -158 76 -169t48 -135t62 -149q14 -24 14 -44q0 -23 6 -23q11 0 40 66q12 26 26 63l125 313q26 65 57 144q25 64 32.5 76.5t25.5 21.5q5 3 8 4q24 13 35 12t27 -16 q14 -13 21 -14.5t12.5 4t30 10.5t63.5 3l75 -5l-1 -75q0 -53 -27 -138t-69 -165q-45 -85 -115 -238t-70 -166q0 -9 -3 -14t-9 -12t-22 -39t-36 -83q-45 -112 -97 -166q-38 -39 -57 -45q-13 -4 -49 -5q-17 0 -38 1q-92 4 -102 25q-46 91 -168.5 395t-126.5 313 q-71 158 -101 243.5t-30 135.5z" />
<glyph unicode="w" horiz-adv-x="1812" d="M24 1147q-4 25 -4 43q0 29 10 35q8 5 39 5q21 0 53 -2q80 -6 99 -16q10 -5 34 -57t66.5 -151t68.5 -156l93 -203q36 -79 44 -79q12 0 88 172t76 185q0 10 18 48.5t46 99t45 103.5q15 38 45 38q32 0 51 13q4 2 9 2q21 -1 69 -39q60 -48 60 -75q0 -16 33 -87t79.5 -168 t67.5 -152q31 -82 55 -82q2 0 4 1q15 5 23 44q7 32 72 184.5t66 208.5q1 54 16.5 79.5t60.5 44.5q37 16 65 18q7 1 16 1q28 0 74 -6q95 -11 111 -21q15 -10 15 -34q0 -8 -2 -18q-6 -38 -31 -55q-27 -17 -53 -87q-19 -51 -19 -79q0 -10 3 -17q8 -23 -6 -51 q-16 -33 -37.5 -104.5t-21.5 -91.5q0 -17 -8 -35t-33 -81.5t-55 -160.5q-42 -139 -62 -156q-20 -16 -20 -36q0 -19 -20.5 -58.5t-47.5 -32.5q-12 4 -21 1t-12.5 -8.5t-21.5 -10.5t-48 -5q-37 0 -55.5 8t-40.5 34q-13 15 -22.5 28.5t-21 36t-19.5 39.5t-27.5 59.5t-35.5 75.5 q-124 261 -143 335q-7 25 -16 40.5t-15 13.5q-17 -6 -69.5 -114t-66.5 -165q-13 -56 -34.5 -112.5t-30.5 -96.5q-13 -60 -49 -120q-25 -44 -35 -50t-30 8q-29 20 -57 9q-18 -7 -42 -7q-16 0 -34 4q-45 8 -61 27q-28 33 -85 198.5t-91 310.5q-21 90 -62 212t-75 195 q-24 52 -34 120z" />
<glyph unicode="x" horiz-adv-x="1138" d="M25 138q9 22 68 113q92 139 135 185q140 151 140 205q0 32 -38 87q-41 59 -77 108t-59 79t-42 54l-28.5 36t-17 20.5t-9.5 13.5t-3 9t-1 12q0 27 -14 36q-14 8 -28 63q-9 35 -9 53q0 10 3 15q4 9 22 9q9 0 23 -2q38 -7 78 -21t78.5 -28t45.5 -14q14 0 145 -158t139 -158 t34.5 36t60.5 83t53 65q29 27 29 48q1 25 49.5 77.5t75.5 57.5q67 11 114 11q69 0 95 -23l30 -27l-31 -21q-12 -8 -21.5 -21t-9.5 -22q0 -28 -280 -400q-33 -44 -33 -74q0 -31 38 -79q42 -53 42 -60q0 -5 89 -114.5t89 -121.5q0 -15 48 -61q42 -41 45 -59.5t-28 -48.5 q-19 -18 -48 -25.5t-100 -12.5l-117 -9l-103 141q-81 113 -121 159.5t-54 46.5q-7 0 -111.5 -119.5t-169.5 -201.5q-14 -18 -20.5 -20t-12.5 4t-29 13.5t-58 7.5q-65 0 -88 18q-11 8 -11 21q0 6 3 14z" />
<glyph unicode="y" horiz-adv-x="1132" d="M24 1146q-4 26 -4 42t4 24q8 12 39 13.5t42 -9.5q10 -10 72 -11h11q52 0 57 9q8 12 23 12q9 0 20 -4q31 -13 68 -54q22 -24 59.5 -86.5t69.5 -127.5q76 -156 101 -156h2q7 3 7 23q0 17 101 175.5t137 199.5q18 20 41.5 25t98.5 5q42 0 69.5 -2.5t43.5 -7t20 -13.5 q4 -7 4 -13q0 -11 -12 -30q-10 -16 -21 -30.5t-27.5 -38.5t-28.5 -45q-15 -25 -82 -129.5t-73 -116.5q-11 -23 -44 -76q-79 -127 -102 -212q-21 -76 -21 -209v-35q1 -34 1 -60q0 -53 -3 -72q-4 -30 -21 -46q-17 -15 -27.5 -15.5t-15 7.5t-14.5 9t-24 -13q-21 -19 -65 -29 q-12 -2 -22 -2q-14 0 -22 5q-12 9 -23 32t-30 37q-11 8 -14 43q-1 16 -1 34q0 22 2 46q3 44 8 87t10 72l5 29q8 35 0.5 50.5t-49.5 57.5q-60 58 -60 70q0 8 -72.5 117t-150 238t-87.5 181z" />
<glyph unicode="z" horiz-adv-x="1120" d="M24 210q10 56 33 72q19 13 57 65.5t38 66.5q0 7 62 70.5t62 74.5q0 14 165 186t165 182t-194 10q-265 0 -324 44q-12 9 -16 67.5t-15 79.5q-15 28 -8 49l12 39q5 16 283 16q76 0 174 -2q452 -6 468 -25q15 -19 44 -11q27 7 49 -10t22 -45q0 -22 -48.5 -98.5t-48.5 -81.5 q0 -6 -38 -49.5t-115 -132t-142 -169.5q-39 -49 -88.5 -105t-73.5 -84t-24 -36q0 -13 157 -13h64l220 2l49 -44q29 -26 41.5 -50.5t19.5 -67.5q4 -23 4 -43q0 -33 -10 -57q-16 -40 -49 -39q-23 0 -38 -15q-8 -8 -106 -8q-99 0 -287 8q-376 16 -411 24q-17 4 -58.5 10 t-61.5 14t-29 24q-8 15 -8 40q0 18 4 42z" />
<glyph unicode="{" />
<glyph unicode="|" />
<glyph unicode="}" />
<glyph unicode="~" />
<glyph unicode="&#xa2;" />
<glyph unicode="&#xa3;" />
<glyph unicode="&#xa7;" />
<glyph unicode="&#xab;" />
<glyph unicode="&#xad;" horiz-adv-x="417" d="M20 508q2 31 23 43t129.5 13.5t170.5 -9.5l55 -9v-138l-173 -1q-129 -1 -153 3.5t-36 29.5q-18 37 -16 68z" />
<glyph unicode="&#xbb;" />
<glyph unicode="&#xbf;" />
<glyph unicode="&#xc0;" />
<glyph unicode="&#xc1;" />
<glyph unicode="&#xc2;" />
<glyph unicode="&#xc4;" />
<glyph unicode="&#xc7;" />
<glyph unicode="&#xc8;" />
<glyph unicode="&#xc9;" />
<glyph unicode="&#xca;" />
<glyph unicode="&#xcb;" />
<glyph unicode="&#xce;" />
<glyph unicode="&#xcf;" />
<glyph unicode="&#xd1;" />
<glyph unicode="&#xd3;" />
<glyph unicode="&#xd4;" />
<glyph unicode="&#xd6;" />
<glyph unicode="&#xd9;" />
<glyph unicode="&#xda;" />
<glyph unicode="&#xdb;" />
<glyph unicode="&#xdc;" />
<glyph unicode="&#xdf;" />
<glyph unicode="&#xe0;" />
<glyph unicode="&#xe1;" />
<glyph unicode="&#xe2;" />
<glyph unicode="&#xe4;" />
<glyph unicode="&#xe7;" />
<glyph unicode="&#xe8;" />
<glyph unicode="&#xe9;" />
<glyph unicode="&#xea;" />
<glyph unicode="&#xeb;" />
<glyph unicode="&#xee;" />
<glyph unicode="&#xef;" />
<glyph unicode="&#xf3;" />
<glyph unicode="&#xf4;" />
<glyph unicode="&#xf6;" />
<glyph unicode="&#xf9;" />
<glyph unicode="&#xfa;" />
<glyph unicode="&#xfb;" />
<glyph unicode="&#xfc;" />
<glyph unicode="&#x2000;" horiz-adv-x="682" />
<glyph unicode="&#x2001;" horiz-adv-x="1365" />
<glyph unicode="&#x2002;" horiz-adv-x="682" />
<glyph unicode="&#x2003;" horiz-adv-x="1365" />
<glyph unicode="&#x2004;" horiz-adv-x="455" />
<glyph unicode="&#x2005;" horiz-adv-x="341" />
<glyph unicode="&#x2006;" horiz-adv-x="227" />
<glyph unicode="&#x2007;" horiz-adv-x="227" />
<glyph unicode="&#x2008;" horiz-adv-x="170" />
<glyph unicode="&#x2009;" horiz-adv-x="273" />
<glyph unicode="&#x200a;" horiz-adv-x="75" />
<glyph unicode="&#x2010;" horiz-adv-x="417" d="M20 508q2 31 23 43t129.5 13.5t170.5 -9.5l55 -9v-138l-173 -1q-129 -1 -153 3.5t-36 29.5q-18 37 -16 68z" />
<glyph unicode="&#x2011;" horiz-adv-x="417" d="M20 508q2 31 23 43t129.5 13.5t170.5 -9.5l55 -9v-138l-173 -1q-129 -1 -153 3.5t-36 29.5q-18 37 -16 68z" />
<glyph unicode="&#x2012;" horiz-adv-x="417" d="M20 508q2 31 23 43t129.5 13.5t170.5 -9.5l55 -9v-138l-173 -1q-129 -1 -153 3.5t-36 29.5q-18 37 -16 68z" />
<glyph unicode="&#x2013;" horiz-adv-x="1062" d="M19.5 508q5.5 31 62.5 43t350.5 13.5t461.5 -9.5l149 -9v-138l-468 -1q-350 -1 -415 3.5t-97 29.5q-49 37 -43.5 68z" />
<glyph unicode="&#x2014;" horiz-adv-x="2086" d="M20 508q11 31 124.5 43t701 13.5t923.5 -9.5l298 -9v-138l-937 -1q-698 -1 -828 3.5t-195 29.5q-98 37 -87 68z" />
<glyph unicode="&#x201c;" horiz-adv-x="567" d="M25 966q-12 64 7 115t74 101q62 58 74 58q7 0 9 -10t-2 -22t-12 -17q-16 -10 -41.5 -72t-18.5 -73q7 -12 25 -12q33 0 57 -53.5t5 -87.5q-13 -24 -73 -24q-52 0 -72.5 19t-31.5 78zM341 994q0 71 21 115t73 84q82 62 87 40q3 -16 -43 -74q-39 -48 -49 -88q-6 -25 -2 -31 t27 -6q31 0 58 -29t32 -62t-14 -58q-16 -16 -81 -16q-61 0 -85 27.5t-24 97.5z" />
<glyph unicode="&#x201e;" horiz-adv-x="561" d="M20.5 196q2.5 25 15.5 38q20 19 70.5 15.5t71.5 -26.5q24 -26 30.5 -96t-10.5 -111q-17 -39 -81 -91q-61 -48 -73 -34q-11 13 37 84q61 90 41 105q-6 5 -21 5q-29 0 -49 18.5t-27 43t-4.5 49.5zM336 175q0 17 21 45q21 30 73 31t78 -28q24 -26 30.5 -96t-10.5 -111 q-8 -18 -31 -44.5t-48 -45.5q-85 -65 -85 -40q0 18 48 89q57 85 43 102q-6 8 -28 8q-25 0 -58 33t-33 57z" />
<glyph unicode="&#x2022;" />
<glyph unicode="&#x202f;" horiz-adv-x="273" />
<glyph unicode="&#x205f;" horiz-adv-x="341" />
<glyph unicode="&#x20ac;" />
<glyph unicode="&#x25fc;" horiz-adv-x="1239" d="M0 0v1239h1239v-1239h-1239z" />
</font>
</defs>
</svg>
